# Gridcycles piece tile_g2_soft_right (tools/make_tiles.py)
v 0.26500 0.36000 0.08450
v 0.27817 0.36000 0.26808
v 0.31755 0.36000 0.53357
v 0.38277 0.36000 0.79393
v 0.47319 0.36000 1.04664
v 0.58795 0.36000 1.28927
v 0.72593 0.36000 1.51948
v 0.88582 0.36000 1.73507
v 1.05504 0.36000 1.92291
v 1.03630 0.36000 2.27894
v 0.68027 0.36000 2.29768
v 0.47612 0.36000 2.07129
v 0.28525 0.36000 1.81394
v 0.12053 0.36000 1.53911
v -0.01647 0.36000 1.24946
v -0.12441 0.36000 0.94778
v -0.20226 0.36000 0.63697
v -0.24928 0.36000 0.32003
v -0.26500 0.36000 0.08450
v 0.00000 0.36000 0.34950
v 0.30000 0.00000 0.00000
v 0.31300 0.00000 0.26465
v 0.35188 0.00000 0.52674
v 0.41626 0.00000 0.78377
v 0.50553 0.00000 1.03325
v 0.61881 0.00000 1.27277
v 0.75503 0.00000 1.50004
v 0.91287 0.00000 1.71286
v 1.09081 0.00000 1.90919
v 1.06960 0.00000 2.31224
v 0.66655 0.00000 2.33345
v 0.44907 0.00000 2.09350
v 0.25615 0.00000 1.83338
v 0.08966 0.00000 1.55561
v -0.04880 0.00000 1.26286
v -0.15790 0.00000 0.95794
v -0.23659 0.00000 0.64380
v -0.28411 0.00000 0.32346
v -0.30000 0.00000 0.00000
v 0.00000 0.00000 0.30000
v 0.30000 0.00000 0.00000
v 0.31300 0.00000 0.26465
v 0.31300 0.32500 0.26465
v 0.30000 0.32500 0.00000
v 0.30000 0.32500 0.00000
v 0.31300 0.32500 0.26465
v 0.27817 0.36000 0.26808
v 0.26500 0.36000 0.08450
v 0.31300 0.00000 0.26465
v 0.35188 0.00000 0.52674
v 0.35188 0.32500 0.52674
v 0.31300 0.32500 0.26465
v 0.31300 0.32500 0.26465
v 0.35188 0.32500 0.52674
v 0.31755 0.36000 0.53357
v 0.27817 0.36000 0.26808
v 0.35188 0.00000 0.52674
v 0.41626 0.00000 0.78377
v 0.41626 0.32500 0.78377
v 0.35188 0.32500 0.52674
v 0.35188 0.32500 0.52674
v 0.41626 0.32500 0.78377
v 0.38277 0.36000 0.79393
v 0.31755 0.36000 0.53357
v 0.41626 0.00000 0.78377
v 0.50553 0.00000 1.03325
v 0.50553 0.32500 1.03325
v 0.41626 0.32500 0.78377
v 0.41626 0.32500 0.78377
v 0.50553 0.32500 1.03325
v 0.47319 0.36000 1.04664
v 0.38277 0.36000 0.79393
v 0.50553 0.00000 1.03325
v 0.61881 0.00000 1.27277
v 0.61881 0.32500 1.27277
v 0.50553 0.32500 1.03325
v 0.50553 0.32500 1.03325
v 0.61881 0.32500 1.27277
v 0.58795 0.36000 1.28927
v 0.47319 0.36000 1.04664
v 0.61881 0.00000 1.27277
v 0.75503 0.00000 1.50004
v 0.75503 0.32500 1.50004
v 0.61881 0.32500 1.27277
v 0.61881 0.32500 1.27277
v 0.75503 0.32500 1.50004
v 0.72593 0.36000 1.51948
v 0.58795 0.36000 1.28927
v 0.75503 0.00000 1.50004
v 0.91287 0.00000 1.71286
v 0.91287 0.32500 1.71286
v 0.75503 0.32500 1.50004
v 0.75503 0.32500 1.50004
v 0.91287 0.32500 1.71286
v 0.88582 0.36000 1.73507
v 0.72593 0.36000 1.51948
v 0.91287 0.00000 1.71286
v 1.09081 0.00000 1.90919
v 1.09081 0.32500 1.90919
v 0.91287 0.32500 1.71286
v 0.91287 0.32500 1.71286
v 1.09081 0.32500 1.90919
v 1.05504 0.36000 1.92291
v 0.88582 0.36000 1.73507
v 1.09081 0.00000 1.90919
v 1.06960 0.00000 2.31224
v 1.06960 0.32500 2.31224
v 1.09081 0.32500 1.90919
v 1.09081 0.32500 1.90919
v 1.06960 0.32500 2.31224
v 1.03630 0.36000 2.27894
v 1.05504 0.36000 1.92291
v 1.06960 0.00000 2.31224
v 0.66655 0.00000 2.33345
v 0.66655 0.32500 2.33345
v 1.06960 0.32500 2.31224
v 1.06960 0.32500 2.31224
v 0.66655 0.32500 2.33345
v 0.68027 0.36000 2.29768
v 1.03630 0.36000 2.27894
v 0.66655 0.00000 2.33345
v 0.44907 0.00000 2.09350
v 0.44907 0.32500 2.09350
v 0.66655 0.32500 2.33345
v 0.66655 0.32500 2.33345
v 0.44907 0.32500 2.09350
v 0.47612 0.36000 2.07129
v 0.68027 0.36000 2.29768
v 0.44907 0.00000 2.09350
v 0.25615 0.00000 1.83338
v 0.25615 0.32500 1.83338
v 0.44907 0.32500 2.09350
v 0.44907 0.32500 2.09350
v 0.25615 0.32500 1.83338
v 0.28525 0.36000 1.81394
v 0.47612 0.36000 2.07129
v 0.25615 0.00000 1.83338
v 0.08966 0.00000 1.55561
v 0.08966 0.32500 1.55561
v 0.25615 0.32500 1.83338
v 0.25615 0.32500 1.83338
v 0.08966 0.32500 1.55561
v 0.12053 0.36000 1.53911
v 0.28525 0.36000 1.81394
v 0.08966 0.00000 1.55561
v -0.04880 0.00000 1.26286
v -0.04880 0.32500 1.26286
v 0.08966 0.32500 1.55561
v 0.08966 0.32500 1.55561
v -0.04880 0.32500 1.26286
v -0.01647 0.36000 1.24946
v 0.12053 0.36000 1.53911
v -0.04880 0.00000 1.26286
v -0.15790 0.00000 0.95794
v -0.15790 0.32500 0.95794
v -0.04880 0.32500 1.26286
v -0.04880 0.32500 1.26286
v -0.15790 0.32500 0.95794
v -0.12441 0.36000 0.94778
v -0.01647 0.36000 1.24946
v -0.15790 0.00000 0.95794
v -0.23659 0.00000 0.64380
v -0.23659 0.32500 0.64380
v -0.15790 0.32500 0.95794
v -0.15790 0.32500 0.95794
v -0.23659 0.32500 0.64380
v -0.20226 0.36000 0.63697
v -0.12441 0.36000 0.94778
v -0.23659 0.00000 0.64380
v -0.28411 0.00000 0.32346
v -0.28411 0.32500 0.32346
v -0.23659 0.32500 0.64380
v -0.23659 0.32500 0.64380
v -0.28411 0.32500 0.32346
v -0.24928 0.36000 0.32003
v -0.20226 0.36000 0.63697
v -0.28411 0.00000 0.32346
v -0.30000 0.00000 0.00000
v -0.30000 0.32500 0.00000
v -0.28411 0.32500 0.32346
v -0.28411 0.32500 0.32346
v -0.30000 0.32500 0.00000
v -0.26500 0.36000 0.08450
v -0.24928 0.36000 0.32003
v -0.30000 0.00000 0.00000
v 0.00000 0.00000 0.30000
v 0.00000 0.32500 0.30000
v -0.30000 0.32500 0.00000
v -0.30000 0.32500 0.00000
v 0.00000 0.32500 0.30000
v 0.00000 0.36000 0.34950
v -0.26500 0.36000 0.08450
v 0.00000 0.00000 0.30000
v 0.30000 0.00000 0.00000
v 0.30000 0.32500 0.00000
v 0.00000 0.32500 0.30000
v 0.00000 0.32500 0.30000
v 0.30000 0.32500 0.00000
v 0.26500 0.36000 0.08450
v 0.00000 0.36000 0.34950
v 0.19121 0.36400 0.38537
v 0.25754 0.36400 0.71884
v -0.07592 0.36400 0.78517
v -0.14225 0.36400 0.45170
v 0.45869 0.36400 1.90251
v 0.26979 0.36400 1.61981
v 0.55249 0.36400 1.43091
v 0.74139 0.36400 1.71361
v 0.29872 0.36400 0.97820
v 0.39821 0.36400 1.21841
v 0.15801 0.36400 1.31790
v 0.05851 0.36400 1.07769
vt 0.12500 0.87500
vt 0.12500 0.87500
vt 0.12500 0.87500
vt 0.12500 0.87500
vt 0.12500 0.87500
vt 0.12500 0.87500
vt 0.12500 0.87500
vt 0.12500 0.87500
vt 0.12500 0.87500
vt 0.12500 0.87500
vt 0.12500 0.87500
vt 0.12500 0.87500
vt 0.12500 0.87500
vt 0.12500 0.87500
vt 0.12500 0.87500
vt 0.12500 0.87500
vt 0.12500 0.87500
vt 0.12500 0.87500
vt 0.12500 0.87500
vt 0.12500 0.87500
vt 0.37500 0.87500
vt 0.37500 0.87500
vt 0.37500 0.87500
vt 0.37500 0.87500
vt 0.37500 0.87500
vt 0.37500 0.87500
vt 0.37500 0.87500
vt 0.37500 0.87500
vt 0.37500 0.87500
vt 0.37500 0.87500
vt 0.37500 0.87500
vt 0.37500 0.87500
vt 0.37500 0.87500
vt 0.37500 0.87500
vt 0.37500 0.87500
vt 0.37500 0.87500
vt 0.37500 0.87500
vt 0.37500 0.87500
vt 0.37500 0.87500
vt 0.37500 0.87500
vt 0.37500 0.87500
vt 0.37500 0.87500
vt 0.37500 0.87500
vt 0.37500 0.87500
vt 0.37500 0.37500
vt 0.37500 0.37500
vt 0.37500 0.37500
vt 0.37500 0.37500
vt 0.37500 0.87500
vt 0.37500 0.87500
vt 0.37500 0.87500
vt 0.37500 0.87500
vt 0.37500 0.37500
vt 0.37500 0.37500
vt 0.37500 0.37500
vt 0.37500 0.37500
vt 0.37500 0.87500
vt 0.37500 0.87500
vt 0.37500 0.87500
vt 0.37500 0.87500
vt 0.37500 0.37500
vt 0.37500 0.37500
vt 0.37500 0.37500
vt 0.37500 0.37500
vt 0.37500 0.87500
vt 0.37500 0.87500
vt 0.37500 0.87500
vt 0.37500 0.87500
vt 0.37500 0.37500
vt 0.37500 0.37500
vt 0.37500 0.37500
vt 0.37500 0.37500
vt 0.37500 0.87500
vt 0.37500 0.87500
vt 0.37500 0.87500
vt 0.37500 0.87500
vt 0.37500 0.37500
vt 0.37500 0.37500
vt 0.37500 0.37500
vt 0.37500 0.37500
vt 0.37500 0.87500
vt 0.37500 0.87500
vt 0.37500 0.87500
vt 0.37500 0.87500
vt 0.37500 0.37500
vt 0.37500 0.37500
vt 0.37500 0.37500
vt 0.37500 0.37500
vt 0.37500 0.87500
vt 0.37500 0.87500
vt 0.37500 0.87500
vt 0.37500 0.87500
vt 0.37500 0.37500
vt 0.37500 0.37500
vt 0.37500 0.37500
vt 0.37500 0.37500
vt 0.37500 0.87500
vt 0.37500 0.87500
vt 0.37500 0.87500
vt 0.37500 0.87500
vt 0.37500 0.37500
vt 0.37500 0.37500
vt 0.37500 0.37500
vt 0.37500 0.37500
vt 0.37500 0.87500
vt 0.37500 0.87500
vt 0.37500 0.87500
vt 0.37500 0.87500
vt 0.37500 0.37500
vt 0.37500 0.37500
vt 0.37500 0.37500
vt 0.37500 0.37500
vt 0.37500 0.87500
vt 0.37500 0.87500
vt 0.37500 0.87500
vt 0.37500 0.87500
vt 0.37500 0.37500
vt 0.37500 0.37500
vt 0.37500 0.37500
vt 0.37500 0.37500
vt 0.37500 0.87500
vt 0.37500 0.87500
vt 0.37500 0.87500
vt 0.37500 0.87500
vt 0.37500 0.37500
vt 0.37500 0.37500
vt 0.37500 0.37500
vt 0.37500 0.37500
vt 0.37500 0.87500
vt 0.37500 0.87500
vt 0.37500 0.87500
vt 0.37500 0.87500
vt 0.37500 0.37500
vt 0.37500 0.37500
vt 0.37500 0.37500
vt 0.37500 0.37500
vt 0.37500 0.87500
vt 0.37500 0.87500
vt 0.37500 0.87500
vt 0.37500 0.87500
vt 0.37500 0.37500
vt 0.37500 0.37500
vt 0.37500 0.37500
vt 0.37500 0.37500
vt 0.37500 0.87500
vt 0.37500 0.87500
vt 0.37500 0.87500
vt 0.37500 0.87500
vt 0.37500 0.37500
vt 0.37500 0.37500
vt 0.37500 0.37500
vt 0.37500 0.37500
vt 0.37500 0.87500
vt 0.37500 0.87500
vt 0.37500 0.87500
vt 0.37500 0.87500
vt 0.37500 0.37500
vt 0.37500 0.37500
vt 0.37500 0.37500
vt 0.37500 0.37500
vt 0.37500 0.87500
vt 0.37500 0.87500
vt 0.37500 0.87500
vt 0.37500 0.87500
vt 0.37500 0.37500
vt 0.37500 0.37500
vt 0.37500 0.37500
vt 0.37500 0.37500
vt 0.37500 0.87500
vt 0.37500 0.87500
vt 0.37500 0.87500
vt 0.37500 0.87500
vt 0.37500 0.37500
vt 0.37500 0.37500
vt 0.37500 0.37500
vt 0.37500 0.37500
vt 0.37500 0.87500
vt 0.37500 0.87500
vt 0.37500 0.87500
vt 0.37500 0.87500
vt 0.37500 0.37500
vt 0.37500 0.37500
vt 0.37500 0.37500
vt 0.37500 0.37500
vt 0.37500 0.87500
vt 0.37500 0.87500
vt 0.37500 0.87500
vt 0.37500 0.87500
vt 0.37500 0.37500
vt 0.37500 0.37500
vt 0.37500 0.37500
vt 0.37500 0.37500
vt 0.37500 0.87500
vt 0.37500 0.87500
vt 0.37500 0.87500
vt 0.37500 0.87500
vt 0.37500 0.37500
vt 0.37500 0.37500
vt 0.37500 0.37500
vt 0.37500 0.37500
vt 0.75000 0.75000
vt 1.00000 0.75000
vt 1.00000 1.00000
vt 0.75000 1.00000
vt 0.75000 0.75000
vt 1.00000 0.75000
vt 1.00000 1.00000
vt 0.75000 1.00000
vt 0.75000 0.50000
vt 1.00000 0.50000
vt 1.00000 0.75000
vt 0.75000 0.75000
vn 0.00000 1.00000 0.00000
vn 0.00000 1.00000 0.00000
vn 0.00000 1.00000 0.00000
vn 0.00000 1.00000 0.00000
vn 0.00000 1.00000 0.00000
vn 0.00000 1.00000 0.00000
vn 0.00000 1.00000 0.00000
vn 0.00000 1.00000 0.00000
vn 0.00000 1.00000 0.00000
vn 0.00000 1.00000 0.00000
vn 0.00000 1.00000 0.00000
vn 0.00000 1.00000 0.00000
vn 0.00000 1.00000 0.00000
vn 0.00000 1.00000 0.00000
vn 0.00000 1.00000 0.00000
vn 0.00000 1.00000 0.00000
vn 0.00000 1.00000 0.00000
vn 0.00000 1.00000 0.00000
vn 0.00000 1.00000 0.00000
vn 0.00000 1.00000 0.00000
vn 0.00000 -1.00000 0.00000
vn 0.00000 -1.00000 0.00000
vn 0.00000 -1.00000 0.00000
vn 0.00000 -1.00000 0.00000
vn 0.00000 -1.00000 0.00000
vn 0.00000 -1.00000 0.00000
vn 0.00000 -1.00000 0.00000
vn 0.00000 -1.00000 0.00000
vn 0.00000 -1.00000 0.00000
vn 0.00000 -1.00000 0.00000
vn 0.00000 -1.00000 0.00000
vn 0.00000 -1.00000 0.00000
vn 0.00000 -1.00000 0.00000
vn 0.00000 -1.00000 0.00000
vn 0.00000 -1.00000 0.00000
vn 0.00000 -1.00000 0.00000
vn 0.00000 -1.00000 0.00000
vn 0.00000 -1.00000 0.00000
vn 0.00000 -1.00000 0.00000
vn 0.00000 -1.00000 0.00000
vn 0.99880 0.00000 -0.04907
vn 0.99880 0.00000 -0.04907
vn 0.99880 0.00000 -0.04907
vn 0.99880 0.00000 -0.04907
vn 0.70626 0.70711 -0.03470
vn 0.70626 0.70711 -0.03470
vn 0.70626 0.70711 -0.03470
vn 0.70626 0.70711 -0.03470
vn 0.98918 0.00000 -0.14673
vn 0.98918 0.00000 -0.14673
vn 0.98918 0.00000 -0.14673
vn 0.98918 0.00000 -0.14673
vn 0.69945 0.70711 -0.10375
vn 0.69945 0.70711 -0.10375
vn 0.69945 0.70711 -0.10375
vn 0.69945 0.70711 -0.10375
vn 0.97003 0.00000 -0.24298
vn 0.97003 0.00000 -0.24298
vn 0.97003 0.00000 -0.24298
vn 0.97003 0.00000 -0.24298
vn 0.68592 0.70711 -0.17181
vn 0.68592 0.70711 -0.17181
vn 0.68592 0.70711 -0.17181
vn 0.68592 0.70711 -0.17181
vn 0.94154 0.00000 -0.33689
vn 0.94154 0.00000 -0.33689
vn 0.94154 0.00000 -0.33689
vn 0.94154 0.00000 -0.33689
vn 0.66577 0.70711 -0.23822
vn 0.66577 0.70711 -0.23822
vn 0.66577 0.70711 -0.23822
vn 0.66577 0.70711 -0.23822
vn 0.90399 0.00000 -0.42756
vn 0.90399 0.00000 -0.42756
vn 0.90399 0.00000 -0.42756
vn 0.90399 0.00000 -0.42756
vn 0.63922 0.70711 -0.30233
vn 0.63922 0.70711 -0.30233
vn 0.63922 0.70711 -0.30233
vn 0.63922 0.70711 -0.30233
vn 0.85773 0.00000 -0.51410
vn 0.85773 0.00000 -0.51410
vn 0.85773 0.00000 -0.51410
vn 0.85773 0.00000 -0.51410
vn 0.60651 0.70711 -0.36353
vn 0.60651 0.70711 -0.36353
vn 0.60651 0.70711 -0.36353
vn 0.60651 0.70711 -0.36353
vn 0.80321 0.00000 -0.59570
vn 0.80321 0.00000 -0.59570
vn 0.80321 0.00000 -0.59570
vn 0.80321 0.00000 -0.59570
vn 0.56795 0.70711 -0.42122
vn 0.56795 0.70711 -0.42122
vn 0.56795 0.70711 -0.42122
vn 0.56795 0.70711 -0.42122
vn 0.74095 0.00000 -0.67156
vn 0.74095 0.00000 -0.67156
vn 0.74095 0.00000 -0.67156
vn 0.74095 0.00000 -0.67156
vn 0.52393 0.70711 -0.47486
vn 0.52393 0.70711 -0.47486
vn 0.52393 0.70711 -0.47486
vn 0.52393 0.70711 -0.47486
vn 0.99862 0.00000 0.05256
vn 0.99862 0.00000 0.05256
vn 0.99862 0.00000 0.05256
vn 0.99862 0.00000 0.05256
vn 0.70613 0.70711 0.03716
vn 0.70613 0.70711 0.03716
vn 0.70613 0.70711 0.03716
vn 0.70613 0.70711 0.03716
vn 0.05256 0.00000 0.99862
vn 0.05256 0.00000 0.99862
vn 0.05256 0.00000 0.99862
vn 0.05256 0.00000 0.99862
vn 0.03716 0.70711 0.70613
vn 0.03716 0.70711 0.70613
vn 0.03716 0.70711 0.70613
vn 0.03716 0.70711 0.70613
vn -0.74095 0.00000 0.67156
vn -0.74095 0.00000 0.67156
vn -0.74095 0.00000 0.67156
vn -0.74095 0.00000 0.67156
vn -0.52393 0.70711 0.47486
vn -0.52393 0.70711 0.47486
vn -0.52393 0.70711 0.47486
vn -0.52393 0.70711 0.47486
vn -0.80321 0.00000 0.59570
vn -0.80321 0.00000 0.59570
vn -0.80321 0.00000 0.59570
vn -0.80321 0.00000 0.59570
vn -0.56795 0.70711 0.42122
vn -0.56795 0.70711 0.42122
vn -0.56795 0.70711 0.42122
vn -0.56795 0.70711 0.42122
vn -0.85773 0.00000 0.51410
vn -0.85773 0.00000 0.51410
vn -0.85773 0.00000 0.51410
vn -0.85773 0.00000 0.51410
vn -0.60651 0.70711 0.36353
vn -0.60651 0.70711 0.36353
vn -0.60651 0.70711 0.36353
vn -0.60651 0.70711 0.36353
vn -0.90399 0.00000 0.42756
vn -0.90399 0.00000 0.42756
vn -0.90399 0.00000 0.42756
vn -0.90399 0.00000 0.42756
vn -0.63922 0.70711 0.30233
vn -0.63922 0.70711 0.30233
vn -0.63922 0.70711 0.30233
vn -0.63922 0.70711 0.30233
vn -0.94154 0.00000 0.33689
vn -0.94154 0.00000 0.33689
vn -0.94154 0.00000 0.33689
vn -0.94154 0.00000 0.33689
vn -0.66577 0.70711 0.23822
vn -0.66577 0.70711 0.23822
vn -0.66577 0.70711 0.23822
vn -0.66577 0.70711 0.23822
vn -0.97003 0.00000 0.24298
vn -0.97003 0.00000 0.24298
vn -0.97003 0.00000 0.24298
vn -0.97003 0.00000 0.24298
vn -0.68592 0.70711 0.17181
vn -0.68592 0.70711 0.17181
vn -0.68592 0.70711 0.17181
vn -0.68592 0.70711 0.17181
vn -0.98918 0.00000 0.14673
vn -0.98918 0.00000 0.14673
vn -0.98918 0.00000 0.14673
vn -0.98918 0.00000 0.14673
vn -0.69945 0.70711 0.10375
vn -0.69945 0.70711 0.10375
vn -0.69945 0.70711 0.10375
vn -0.69945 0.70711 0.10375
vn -0.99880 0.00000 0.04907
vn -0.99880 0.00000 0.04907
vn -0.99880 0.00000 0.04907
vn -0.99880 0.00000 0.04907
vn -0.70626 0.70711 0.03470
vn -0.70626 0.70711 0.03470
vn -0.70626 0.70711 0.03470
vn -0.70626 0.70711 0.03470
vn 0.70711 0.00000 -0.70711
vn 0.70711 0.00000 -0.70711
vn 0.70711 0.00000 -0.70711
vn 0.70711 0.00000 -0.70711
vn 0.50000 0.70711 -0.50000
vn 0.50000 0.70711 -0.50000
vn 0.50000 0.70711 -0.50000
vn 0.50000 0.70711 -0.50000
vn -0.70711 0.00000 -0.70711
vn -0.70711 0.00000 -0.70711
vn -0.70711 0.00000 -0.70711
vn -0.70711 0.00000 -0.70711
vn -0.50000 0.70711 -0.50000
vn -0.50000 0.70711 -0.50000
vn -0.50000 0.70711 -0.50000
vn -0.50000 0.70711 -0.50000
vn 0.00000 1.00000 0.00000
vn 0.00000 1.00000 0.00000
vn 0.00000 1.00000 0.00000
vn 0.00000 1.00000 0.00000
vn 0.00000 1.00000 0.00000
vn 0.00000 1.00000 0.00000
vn 0.00000 1.00000 0.00000
vn 0.00000 1.00000 0.00000
vn 0.00000 1.00000 0.00000
vn 0.00000 1.00000 0.00000
vn 0.00000 1.00000 0.00000
vn 0.00000 1.00000 0.00000
f 20/20/20 2/2/2 1/1/1
f 20/20/20 3/3/3 2/2/2
f 20/20/20 4/4/4 3/3/3
f 20/20/20 5/5/5 4/4/4
f 20/20/20 6/6/6 5/5/5
f 20/20/20 7/7/7 6/6/6
f 8/8/8 10/10/10 9/9/9
f 7/7/7 10/10/10 8/8/8
f 20/20/20 10/10/10 7/7/7
f 20/20/20 11/11/11 10/10/10
f 20/20/20 12/12/12 11/11/11
f 20/20/20 13/13/13 12/12/12
f 20/20/20 14/14/14 13/13/13
f 20/20/20 15/15/15 14/14/14
f 20/20/20 16/16/16 15/15/15
f 20/20/20 17/17/17 16/16/16
f 20/20/20 18/18/18 17/17/17
f 18/18/18 20/20/20 19/19/19
f 40/40/40 21/21/21 22/22/22
f 40/40/40 22/22/22 23/23/23
f 40/40/40 23/23/23 24/24/24
f 40/40/40 24/24/24 25/25/25
f 40/40/40 25/25/25 26/26/26
f 40/40/40 26/26/26 27/27/27
f 28/28/28 29/29/29 30/30/30
f 27/27/27 28/28/28 30/30/30
f 40/40/40 27/27/27 30/30/30
f 40/40/40 30/30/30 31/31/31
f 40/40/40 31/31/31 32/32/32
f 40/40/40 32/32/32 33/33/33
f 40/40/40 33/33/33 34/34/34
f 40/40/40 34/34/34 35/35/35
f 40/40/40 35/35/35 36/36/36
f 40/40/40 36/36/36 37/37/37
f 40/40/40 37/37/37 38/38/38
f 38/38/38 39/39/39 40/40/40
f 41/41/41 43/43/43 42/42/42
f 41/41/41 44/44/44 43/43/43
f 45/45/45 47/47/47 46/46/46
f 45/45/45 48/48/48 47/47/47
f 49/49/49 51/51/51 50/50/50
f 49/49/49 52/52/52 51/51/51
f 53/53/53 55/55/55 54/54/54
f 53/53/53 56/56/56 55/55/55
f 57/57/57 59/59/59 58/58/58
f 57/57/57 60/60/60 59/59/59
f 61/61/61 63/63/63 62/62/62
f 61/61/61 64/64/64 63/63/63
f 65/65/65 67/67/67 66/66/66
f 65/65/65 68/68/68 67/67/67
f 69/69/69 71/71/71 70/70/70
f 69/69/69 72/72/72 71/71/71
f 73/73/73 75/75/75 74/74/74
f 73/73/73 76/76/76 75/75/75
f 77/77/77 79/79/79 78/78/78
f 77/77/77 80/80/80 79/79/79
f 81/81/81 83/83/83 82/82/82
f 81/81/81 84/84/84 83/83/83
f 85/85/85 87/87/87 86/86/86
f 85/85/85 88/88/88 87/87/87
f 89/89/89 91/91/91 90/90/90
f 89/89/89 92/92/92 91/91/91
f 93/93/93 95/95/95 94/94/94
f 93/93/93 96/96/96 95/95/95
f 97/97/97 99/99/99 98/98/98
f 97/97/97 100/100/100 99/99/99
f 101/101/101 103/103/103 102/102/102
f 101/101/101 104/104/104 103/103/103
f 105/105/105 107/107/107 106/106/106
f 105/105/105 108/108/108 107/107/107
f 109/109/109 111/111/111 110/110/110
f 109/109/109 112/112/112 111/111/111
f 113/113/113 115/115/115 114/114/114
f 113/113/113 116/116/116 115/115/115
f 117/117/117 119/119/119 118/118/118
f 117/117/117 120/120/120 119/119/119
f 121/121/121 123/123/123 122/122/122
f 121/121/121 124/124/124 123/123/123
f 125/125/125 127/127/127 126/126/126
f 125/125/125 128/128/128 127/127/127
f 129/129/129 131/131/131 130/130/130
f 129/129/129 132/132/132 131/131/131
f 133/133/133 135/135/135 134/134/134
f 133/133/133 136/136/136 135/135/135
f 137/137/137 139/139/139 138/138/138
f 137/137/137 140/140/140 139/139/139
f 141/141/141 143/143/143 142/142/142
f 141/141/141 144/144/144 143/143/143
f 145/145/145 147/147/147 146/146/146
f 145/145/145 148/148/148 147/147/147
f 149/149/149 151/151/151 150/150/150
f 149/149/149 152/152/152 151/151/151
f 153/153/153 155/155/155 154/154/154
f 153/153/153 156/156/156 155/155/155
f 157/157/157 159/159/159 158/158/158
f 157/157/157 160/160/160 159/159/159
f 161/161/161 163/163/163 162/162/162
f 161/161/161 164/164/164 163/163/163
f 165/165/165 167/167/167 166/166/166
f 165/165/165 168/168/168 167/167/167
f 169/169/169 171/171/171 170/170/170
f 169/169/169 172/172/172 171/171/171
f 173/173/173 175/175/175 174/174/174
f 173/173/173 176/176/176 175/175/175
f 177/177/177 179/179/179 178/178/178
f 177/177/177 180/180/180 179/179/179
f 181/181/181 183/183/183 182/182/182
f 181/181/181 184/184/184 183/183/183
f 185/185/185 187/187/187 186/186/186
f 185/185/185 188/188/188 187/187/187
f 189/189/189 191/191/191 190/190/190
f 189/189/189 192/192/192 191/191/191
f 193/193/193 195/195/195 194/194/194
f 193/193/193 196/196/196 195/195/195
f 197/197/197 199/199/199 198/198/198
f 197/197/197 200/200/200 199/199/199
f 201/201/201 203/203/203 202/202/202
f 201/201/201 204/204/204 203/203/203
f 205/205/205 207/207/207 206/206/206
f 205/205/205 208/208/208 207/207/207
f 209/209/209 211/211/211 210/210/210
f 209/209/209 212/212/212 211/211/211
