# Gridcycles piece tile_g3_soft_left (tools/make_tiles.py)
v -0.26500 0.36000 0.08450
v -0.24446 0.36000 0.41804
v -0.18305 0.36000 0.83206
v -0.08135 0.36000 1.23806
v 0.05965 0.36000 1.63214
v 0.23861 0.36000 2.01051
v 0.45378 0.36000 2.36951
v 0.70311 0.36000 2.70569
v 0.97317 0.36000 3.00479
v 1.32920 0.36000 2.98605
v 1.34793 0.36000 2.63002
v 1.11281 0.36000 2.36946
v 0.89446 0.36000 2.07505
v 0.70602 0.36000 1.76067
v 0.54931 0.36000 1.42932
v 0.42583 0.36000 1.08421
v 0.33677 0.36000 0.72866
v 0.28299 0.36000 0.36609
v 0.26500 0.36000 0.08450
v 0.00000 0.36000 0.34950
v -0.30000 0.00000 0.00000
v -0.27929 0.00000 0.42147
v -0.21738 0.00000 0.83889
v -0.11484 0.00000 1.24822
v 0.02732 0.00000 1.64554
v 0.20774 0.00000 2.02701
v 0.42468 0.00000 2.38895
v 0.67606 0.00000 2.72789
v 0.95944 0.00000 3.04056
v 1.36249 0.00000 3.01935
v 1.38370 0.00000 2.61630
v 1.13986 0.00000 2.34726
v 0.92356 0.00000 2.05561
v 0.73689 0.00000 1.74417
v 0.58165 0.00000 1.41593
v 0.45932 0.00000 1.07405
v 0.37109 0.00000 0.72183
v 0.31782 0.00000 0.36266
v 0.30000 0.00000 0.00000
v 0.00000 0.00000 0.30000
v -0.30000 0.00000 0.00000
v -0.27929 0.00000 0.42147
v -0.27929 0.32500 0.42147
v -0.30000 0.32500 0.00000
v -0.30000 0.32500 0.00000
v -0.27929 0.32500 0.42147
v -0.24446 0.36000 0.41804
v -0.26500 0.36000 0.08450
v -0.27929 0.00000 0.42147
v -0.21738 0.00000 0.83889
v -0.21738 0.32500 0.83889
v -0.27929 0.32500 0.42147
v -0.27929 0.32500 0.42147
v -0.21738 0.32500 0.83889
v -0.18305 0.36000 0.83206
v -0.24446 0.36000 0.41804
v -0.21738 0.00000 0.83889
v -0.11484 0.00000 1.24822
v -0.11484 0.32500 1.24822
v -0.21738 0.32500 0.83889
v -0.21738 0.32500 0.83889
v -0.11484 0.32500 1.24822
v -0.08135 0.36000 1.23806
v -0.18305 0.36000 0.83206
v -0.11484 0.00000 1.24822
v 0.02732 0.00000 1.64554
v 0.02732 0.32500 1.64554
v -0.11484 0.32500 1.24822
v -0.11484 0.32500 1.24822
v 0.02732 0.32500 1.64554
v 0.05965 0.36000 1.63214
v -0.08135 0.36000 1.23806
v 0.02732 0.00000 1.64554
v 0.20774 0.00000 2.02701
v 0.20774 0.32500 2.02701
v 0.02732 0.32500 1.64554
v 0.02732 0.32500 1.64554
v 0.20774 0.32500 2.02701
v 0.23861 0.36000 2.01051
v 0.05965 0.36000 1.63214
v 0.20774 0.00000 2.02701
v 0.42468 0.00000 2.38895
v 0.42468 0.32500 2.38895
v 0.20774 0.32500 2.02701
v 0.20774 0.32500 2.02701
v 0.42468 0.32500 2.38895
v 0.45378 0.36000 2.36951
v 0.23861 0.36000 2.01051
v 0.42468 0.00000 2.38895
v 0.67606 0.00000 2.72789
v 0.67606 0.32500 2.72789
v 0.42468 0.32500 2.38895
v 0.42468 0.32500 2.38895
v 0.67606 0.32500 2.72789
v 0.70311 0.36000 2.70569
v 0.45378 0.36000 2.36951
v 0.67606 0.00000 2.72789
v 0.95944 0.00000 3.04056
v 0.95944 0.32500 3.04056
v 0.67606 0.32500 2.72789
v 0.67606 0.32500 2.72789
v 0.95944 0.32500 3.04056
v 0.97317 0.36000 3.00479
v 0.70311 0.36000 2.70569
v 0.95944 0.00000 3.04056
v 1.36249 0.00000 3.01935
v 1.36249 0.32500 3.01935
v 0.95944 0.32500 3.04056
v 0.95944 0.32500 3.04056
v 1.36249 0.32500 3.01935
v 1.32920 0.36000 2.98605
v 0.97317 0.36000 3.00479
v 1.36249 0.00000 3.01935
v 1.38370 0.00000 2.61630
v 1.38370 0.32500 2.61630
v 1.36249 0.32500 3.01935
v 1.36249 0.32500 3.01935
v 1.38370 0.32500 2.61630
v 1.34793 0.36000 2.63002
v 1.32920 0.36000 2.98605
v 1.38370 0.00000 2.61630
v 1.13986 0.00000 2.34726
v 1.13986 0.32500 2.34726
v 1.38370 0.32500 2.61630
v 1.38370 0.32500 2.61630
v 1.13986 0.32500 2.34726
v 1.11281 0.36000 2.36946
v 1.34793 0.36000 2.63002
v 1.13986 0.00000 2.34726
v 0.92356 0.00000 2.05561
v 0.92356 0.32500 2.05561
v 1.13986 0.32500 2.34726
v 1.13986 0.32500 2.34726
v 0.92356 0.32500 2.05561
v 0.89446 0.36000 2.07505
v 1.11281 0.36000 2.36946
v 0.92356 0.00000 2.05561
v 0.73689 0.00000 1.74417
v 0.73689 0.32500 1.74417
v 0.92356 0.32500 2.05561
v 0.92356 0.32500 2.05561
v 0.73689 0.32500 1.74417
v 0.70602 0.36000 1.76067
v 0.89446 0.36000 2.07505
v 0.73689 0.00000 1.74417
v 0.58165 0.00000 1.41593
v 0.58165 0.32500 1.41593
v 0.73689 0.32500 1.74417
v 0.73689 0.32500 1.74417
v 0.58165 0.32500 1.41593
v 0.54931 0.36000 1.42932
v 0.70602 0.36000 1.76067
v 0.58165 0.00000 1.41593
v 0.45932 0.00000 1.07405
v 0.45932 0.32500 1.07405
v 0.58165 0.32500 1.41593
v 0.58165 0.32500 1.41593
v 0.45932 0.32500 1.07405
v 0.42583 0.36000 1.08421
v 0.54931 0.36000 1.42932
v 0.45932 0.00000 1.07405
v 0.37109 0.00000 0.72183
v 0.37109 0.32500 0.72183
v 0.45932 0.32500 1.07405
v 0.45932 0.32500 1.07405
v 0.37109 0.32500 0.72183
v 0.33677 0.36000 0.72866
v 0.42583 0.36000 1.08421
v 0.37109 0.00000 0.72183
v 0.31782 0.00000 0.36266
v 0.31782 0.32500 0.36266
v 0.37109 0.32500 0.72183
v 0.37109 0.32500 0.72183
v 0.31782 0.32500 0.36266
v 0.28299 0.36000 0.36609
v 0.33677 0.36000 0.72866
v 0.31782 0.00000 0.36266
v 0.30000 0.00000 0.00000
v 0.30000 0.32500 0.00000
v 0.31782 0.32500 0.36266
v 0.31782 0.32500 0.36266
v 0.30000 0.32500 0.00000
v 0.26500 0.36000 0.08450
v 0.28299 0.36000 0.36609
v 0.30000 0.00000 0.00000
v 0.00000 0.00000 0.30000
v 0.00000 0.32500 0.30000
v 0.30000 0.32500 0.00000
v 0.30000 0.32500 0.00000
v 0.00000 0.32500 0.30000
v 0.00000 0.36000 0.34950
v 0.26500 0.36000 0.08450
v 0.00000 0.00000 0.30000
v -0.30000 0.00000 0.00000
v -0.30000 0.32500 0.00000
v 0.00000 0.32500 0.30000
v 0.00000 0.32500 0.30000
v -0.30000 0.32500 0.00000
v -0.26500 0.36000 0.08450
v 0.00000 0.36000 0.34950
v -0.12304 0.36400 0.64679
v -0.05671 0.36400 0.98026
v 0.27676 0.36400 0.91393
v 0.21043 0.36400 0.58046
v 0.90992 0.36400 2.26918
v 0.72102 0.36400 1.98648
v 0.43832 0.36400 2.17538
v 0.62722 0.36400 2.45808
v 0.13463 0.36400 1.46038
v 0.23413 0.36400 1.70059
v 0.47434 0.36400 1.60109
v 0.37484 0.36400 1.36088
vt 0.12500 0.87500
vt 0.12500 0.87500
vt 0.12500 0.87500
vt 0.12500 0.87500
vt 0.12500 0.87500
vt 0.12500 0.87500
vt 0.12500 0.87500
vt 0.12500 0.87500
vt 0.12500 0.87500
vt 0.12500 0.87500
vt 0.12500 0.87500
vt 0.12500 0.87500
vt 0.12500 0.87500
vt 0.12500 0.87500
vt 0.12500 0.87500
vt 0.12500 0.87500
vt 0.12500 0.87500
vt 0.12500 0.87500
vt 0.12500 0.87500
vt 0.12500 0.87500
vt 0.37500 0.87500
vt 0.37500 0.87500
vt 0.37500 0.87500
vt 0.37500 0.87500
vt 0.37500 0.87500
vt 0.37500 0.87500
vt 0.37500 0.87500
vt 0.37500 0.87500
vt 0.37500 0.87500
vt 0.37500 0.87500
vt 0.37500 0.87500
vt 0.37500 0.87500
vt 0.37500 0.87500
vt 0.37500 0.87500
vt 0.37500 0.87500
vt 0.37500 0.87500
vt 0.37500 0.87500
vt 0.37500 0.87500
vt 0.37500 0.87500
vt 0.37500 0.87500
vt 0.37500 0.87500
vt 0.37500 0.87500
vt 0.37500 0.87500
vt 0.37500 0.87500
vt 0.37500 0.37500
vt 0.37500 0.37500
vt 0.37500 0.37500
vt 0.37500 0.37500
vt 0.37500 0.87500
vt 0.37500 0.87500
vt 0.37500 0.87500
vt 0.37500 0.87500
vt 0.37500 0.37500
vt 0.37500 0.37500
vt 0.37500 0.37500
vt 0.37500 0.37500
vt 0.37500 0.87500
vt 0.37500 0.87500
vt 0.37500 0.87500
vt 0.37500 0.87500
vt 0.37500 0.37500
vt 0.37500 0.37500
vt 0.37500 0.37500
vt 0.37500 0.37500
vt 0.37500 0.87500
vt 0.37500 0.87500
vt 0.37500 0.87500
vt 0.37500 0.87500
vt 0.37500 0.37500
vt 0.37500 0.37500
vt 0.37500 0.37500
vt 0.37500 0.37500
vt 0.37500 0.87500
vt 0.37500 0.87500
vt 0.37500 0.87500
vt 0.37500 0.87500
vt 0.37500 0.37500
vt 0.37500 0.37500
vt 0.37500 0.37500
vt 0.37500 0.37500
vt 0.37500 0.87500
vt 0.37500 0.87500
vt 0.37500 0.87500
vt 0.37500 0.87500
vt 0.37500 0.37500
vt 0.37500 0.37500
vt 0.37500 0.37500
vt 0.37500 0.37500
vt 0.37500 0.87500
vt 0.37500 0.87500
vt 0.37500 0.87500
vt 0.37500 0.87500
vt 0.37500 0.37500
vt 0.37500 0.37500
vt 0.37500 0.37500
vt 0.37500 0.37500
vt 0.37500 0.87500
vt 0.37500 0.87500
vt 0.37500 0.87500
vt 0.37500 0.87500
vt 0.37500 0.37500
vt 0.37500 0.37500
vt 0.37500 0.37500
vt 0.37500 0.37500
vt 0.37500 0.87500
vt 0.37500 0.87500
vt 0.37500 0.87500
vt 0.37500 0.87500
vt 0.37500 0.37500
vt 0.37500 0.37500
vt 0.37500 0.37500
vt 0.37500 0.37500
vt 0.37500 0.87500
vt 0.37500 0.87500
vt 0.37500 0.87500
vt 0.37500 0.87500
vt 0.37500 0.37500
vt 0.37500 0.37500
vt 0.37500 0.37500
vt 0.37500 0.37500
vt 0.37500 0.87500
vt 0.37500 0.87500
vt 0.37500 0.87500
vt 0.37500 0.87500
vt 0.37500 0.37500
vt 0.37500 0.37500
vt 0.37500 0.37500
vt 0.37500 0.37500
vt 0.37500 0.87500
vt 0.37500 0.87500
vt 0.37500 0.87500
vt 0.37500 0.87500
vt 0.37500 0.37500
vt 0.37500 0.37500
vt 0.37500 0.37500
vt 0.37500 0.37500
vt 0.37500 0.87500
vt 0.37500 0.87500
vt 0.37500 0.87500
vt 0.37500 0.87500
vt 0.37500 0.37500
vt 0.37500 0.37500
vt 0.37500 0.37500
vt 0.37500 0.37500
vt 0.37500 0.87500
vt 0.37500 0.87500
vt 0.37500 0.87500
vt 0.37500 0.87500
vt 0.37500 0.37500
vt 0.37500 0.37500
vt 0.37500 0.37500
vt 0.37500 0.37500
vt 0.37500 0.87500
vt 0.37500 0.87500
vt 0.37500 0.87500
vt 0.37500 0.87500
vt 0.37500 0.37500
vt 0.37500 0.37500
vt 0.37500 0.37500
vt 0.37500 0.37500
vt 0.37500 0.87500
vt 0.37500 0.87500
vt 0.37500 0.87500
vt 0.37500 0.87500
vt 0.37500 0.37500
vt 0.37500 0.37500
vt 0.37500 0.37500
vt 0.37500 0.37500
vt 0.37500 0.87500
vt 0.37500 0.87500
vt 0.37500 0.87500
vt 0.37500 0.87500
vt 0.37500 0.37500
vt 0.37500 0.37500
vt 0.37500 0.37500
vt 0.37500 0.37500
vt 0.37500 0.87500
vt 0.37500 0.87500
vt 0.37500 0.87500
vt 0.37500 0.87500
vt 0.37500 0.37500
vt 0.37500 0.37500
vt 0.37500 0.37500
vt 0.37500 0.37500
vt 0.37500 0.87500
vt 0.37500 0.87500
vt 0.37500 0.87500
vt 0.37500 0.87500
vt 0.37500 0.37500
vt 0.37500 0.37500
vt 0.37500 0.37500
vt 0.37500 0.37500
vt 0.37500 0.87500
vt 0.37500 0.87500
vt 0.37500 0.87500
vt 0.37500 0.87500
vt 0.37500 0.37500
vt 0.37500 0.37500
vt 0.37500 0.37500
vt 0.37500 0.37500
vt 0.00000 0.50000
vt 0.25000 0.50000
vt 0.25000 0.75000
vt 0.00000 0.75000
vt 0.00000 0.50000
vt 0.25000 0.50000
vt 0.25000 0.75000
vt 0.00000 0.75000
vt 0.75000 0.50000
vt 1.00000 0.50000
vt 1.00000 0.75000
vt 0.75000 0.75000
vn -0.00000 1.00000 0.00000
vn -0.00000 1.00000 0.00000
vn -0.00000 1.00000 0.00000
vn -0.00000 1.00000 0.00000
vn -0.00000 1.00000 0.00000
vn -0.00000 1.00000 0.00000
vn -0.00000 1.00000 0.00000
vn -0.00000 1.00000 0.00000
vn -0.00000 1.00000 0.00000
vn -0.00000 1.00000 0.00000
vn -0.00000 1.00000 0.00000
vn -0.00000 1.00000 0.00000
vn -0.00000 1.00000 0.00000
vn -0.00000 1.00000 0.00000
vn -0.00000 1.00000 0.00000
vn -0.00000 1.00000 0.00000
vn -0.00000 1.00000 0.00000
vn -0.00000 1.00000 0.00000
vn -0.00000 1.00000 0.00000
vn -0.00000 1.00000 0.00000
vn -0.00000 -1.00000 0.00000
vn -0.00000 -1.00000 0.00000
vn -0.00000 -1.00000 0.00000
vn -0.00000 -1.00000 0.00000
vn -0.00000 -1.00000 0.00000
vn -0.00000 -1.00000 0.00000
vn -0.00000 -1.00000 0.00000
vn -0.00000 -1.00000 0.00000
vn -0.00000 -1.00000 0.00000
vn -0.00000 -1.00000 0.00000
vn -0.00000 -1.00000 0.00000
vn -0.00000 -1.00000 0.00000
vn -0.00000 -1.00000 0.00000
vn -0.00000 -1.00000 0.00000
vn -0.00000 -1.00000 0.00000
vn -0.00000 -1.00000 0.00000
vn -0.00000 -1.00000 0.00000
vn -0.00000 -1.00000 0.00000
vn -0.00000 -1.00000 0.00000
vn -0.00000 -1.00000 0.00000
vn -0.99880 0.00000 0.04907
vn -0.99880 0.00000 0.04907
vn -0.99880 0.00000 0.04907
vn -0.99880 0.00000 0.04907
vn -0.70626 0.70711 0.03470
vn -0.70626 0.70711 0.03470
vn -0.70626 0.70711 0.03470
vn -0.70626 0.70711 0.03470
vn -0.98918 0.00000 0.14673
vn -0.98918 0.00000 0.14673
vn -0.98918 0.00000 0.14673
vn -0.98918 0.00000 0.14673
vn -0.69945 0.70711 0.10375
vn -0.69945 0.70711 0.10375
vn -0.69945 0.70711 0.10375
vn -0.69945 0.70711 0.10375
vn -0.97003 0.00000 0.24298
vn -0.97003 0.00000 0.24298
vn -0.97003 0.00000 0.24298
vn -0.97003 0.00000 0.24298
vn -0.68592 0.70711 0.17181
vn -0.68592 0.70711 0.17181
vn -0.68592 0.70711 0.17181
vn -0.68592 0.70711 0.17181
vn -0.94154 0.00000 0.33689
vn -0.94154 0.00000 0.33689
vn -0.94154 0.00000 0.33689
vn -0.94154 0.00000 0.33689
vn -0.66577 0.70711 0.23822
vn -0.66577 0.70711 0.23822
vn -0.66577 0.70711 0.23822
vn -0.66577 0.70711 0.23822
vn -0.90399 0.00000 0.42756
vn -0.90399 0.00000 0.42756
vn -0.90399 0.00000 0.42756
vn -0.90399 0.00000 0.42756
vn -0.63922 0.70711 0.30233
vn -0.63922 0.70711 0.30233
vn -0.63922 0.70711 0.30233
vn -0.63922 0.70711 0.30233
vn -0.85773 0.00000 0.51410
vn -0.85773 0.00000 0.51410
vn -0.85773 0.00000 0.51410
vn -0.85773 0.00000 0.51410
vn -0.60651 0.70711 0.36353
vn -0.60651 0.70711 0.36353
vn -0.60651 0.70711 0.36353
vn -0.60651 0.70711 0.36353
vn -0.80321 0.00000 0.59570
vn -0.80321 0.00000 0.59570
vn -0.80321 0.00000 0.59570
vn -0.80321 0.00000 0.59570
vn -0.56795 0.70711 0.42122
vn -0.56795 0.70711 0.42122
vn -0.56795 0.70711 0.42122
vn -0.56795 0.70711 0.42122
vn -0.74095 0.00000 0.67156
vn -0.74095 0.00000 0.67156
vn -0.74095 0.00000 0.67156
vn -0.74095 0.00000 0.67156
vn -0.52393 0.70711 0.47486
vn -0.52393 0.70711 0.47486
vn -0.52393 0.70711 0.47486
vn -0.52393 0.70711 0.47486
vn 0.05256 0.00000 0.99862
vn 0.05256 0.00000 0.99862
vn 0.05256 0.00000 0.99862
vn 0.05256 0.00000 0.99862
vn 0.03716 0.70711 0.70613
vn 0.03716 0.70711 0.70613
vn 0.03716 0.70711 0.70613
vn 0.03716 0.70711 0.70613
vn 0.99862 0.00000 0.05256
vn 0.99862 0.00000 0.05256
vn 0.99862 0.00000 0.05256
vn 0.99862 0.00000 0.05256
vn 0.70613 0.70711 0.03716
vn 0.70613 0.70711 0.03716
vn 0.70613 0.70711 0.03716
vn 0.70613 0.70711 0.03716
vn 0.74095 0.00000 -0.67156
vn 0.74095 0.00000 -0.67156
vn 0.74095 0.00000 -0.67156
vn 0.74095 0.00000 -0.67156
vn 0.52393 0.70711 -0.47486
vn 0.52393 0.70711 -0.47486
vn 0.52393 0.70711 -0.47486
vn 0.52393 0.70711 -0.47486
vn 0.80321 0.00000 -0.59570
vn 0.80321 0.00000 -0.59570
vn 0.80321 0.00000 -0.59570
vn 0.80321 0.00000 -0.59570
vn 0.56795 0.70711 -0.42122
vn 0.56795 0.70711 -0.42122
vn 0.56795 0.70711 -0.42122
vn 0.56795 0.70711 -0.42122
vn 0.85773 0.00000 -0.51410
vn 0.85773 0.00000 -0.51410
vn 0.85773 0.00000 -0.51410
vn 0.85773 0.00000 -0.51410
vn 0.60651 0.70711 -0.36353
vn 0.60651 0.70711 -0.36353
vn 0.60651 0.70711 -0.36353
vn 0.60651 0.70711 -0.36353
vn 0.90399 0.00000 -0.42756
vn 0.90399 0.00000 -0.42756
vn 0.90399 0.00000 -0.42756
vn 0.90399 0.00000 -0.42756
vn 0.63922 0.70711 -0.30233
vn 0.63922 0.70711 -0.30233
vn 0.63922 0.70711 -0.30233
vn 0.63922 0.70711 -0.30233
vn 0.94154 0.00000 -0.33689
vn 0.94154 0.00000 -0.33689
vn 0.94154 0.00000 -0.33689
vn 0.94154 0.00000 -0.33689
vn 0.66577 0.70711 -0.23822
vn 0.66577 0.70711 -0.23822
vn 0.66577 0.70711 -0.23822
vn 0.66577 0.70711 -0.23822
vn 0.97003 0.00000 -0.24298
vn 0.97003 0.00000 -0.24298
vn 0.97003 0.00000 -0.24298
vn 0.97003 0.00000 -0.24298
vn 0.68592 0.70711 -0.17181
vn 0.68592 0.70711 -0.17181
vn 0.68592 0.70711 -0.17181
vn 0.68592 0.70711 -0.17181
vn 0.98918 0.00000 -0.14673
vn 0.98918 0.00000 -0.14673
vn 0.98918 0.00000 -0.14673
vn 0.98918 0.00000 -0.14673
vn 0.69945 0.70711 -0.10375
vn 0.69945 0.70711 -0.10375
vn 0.69945 0.70711 -0.10375
vn 0.69945 0.70711 -0.10375
vn 0.99880 0.00000 -0.04907
vn 0.99880 0.00000 -0.04907
vn 0.99880 0.00000 -0.04907
vn 0.99880 0.00000 -0.04907
vn 0.70626 0.70711 -0.03470
vn 0.70626 0.70711 -0.03470
vn 0.70626 0.70711 -0.03470
vn 0.70626 0.70711 -0.03470
vn -0.70711 0.00000 -0.70711
vn -0.70711 0.00000 -0.70711
vn -0.70711 0.00000 -0.70711
vn -0.70711 0.00000 -0.70711
vn -0.50000 0.70711 -0.50000
vn -0.50000 0.70711 -0.50000
vn -0.50000 0.70711 -0.50000
vn -0.50000 0.70711 -0.50000
vn 0.70711 0.00000 -0.70711
vn 0.70711 0.00000 -0.70711
vn 0.70711 0.00000 -0.70711
vn 0.70711 0.00000 -0.70711
vn 0.50000 0.70711 -0.50000
vn 0.50000 0.70711 -0.50000
vn 0.50000 0.70711 -0.50000
vn 0.50000 0.70711 -0.50000
vn -0.00000 1.00000 0.00000
vn -0.00000 1.00000 0.00000
vn -0.00000 1.00000 0.00000
vn -0.00000 1.00000 0.00000
vn -0.00000 1.00000 0.00000
vn -0.00000 1.00000 0.00000
vn -0.00000 1.00000 0.00000
vn -0.00000 1.00000 0.00000
vn -0.00000 1.00000 0.00000
vn -0.00000 1.00000 0.00000
vn -0.00000 1.00000 0.00000
vn -0.00000 1.00000 0.00000
f 20/20/20 1/1/1 2/2/2
f 20/20/20 2/2/2 3/3/3
f 20/20/20 3/3/3 4/4/4
f 20/20/20 4/4/4 5/5/5
f 20/20/20 5/5/5 6/6/6
f 20/20/20 6/6/6 7/7/7
f 20/20/20 7/7/7 8/8/8
f 20/20/20 8/8/8 9/9/9
f 9/9/9 10/10/10 11/11/11
f 9/9/9 11/11/11 12/12/12
f 9/9/9 12/12/12 13/13/13
f 9/9/9 13/13/13 14/14/14
f 20/20/20 9/9/9 14/14/14
f 20/20/20 14/14/14 15/15/15
f 20/20/20 15/15/15 16/16/16
f 20/20/20 16/16/16 17/17/17
f 20/20/20 17/17/17 18/18/18
f 18/18/18 19/19/19 20/20/20
f 40/40/40 22/22/22 21/21/21
f 40/40/40 23/23/23 22/22/22
f 40/40/40 24/24/24 23/23/23
f 40/40/40 25/25/25 24/24/24
f 40/40/40 26/26/26 25/25/25
f 40/40/40 27/27/27 26/26/26
f 40/40/40 28/28/28 27/27/27
f 40/40/40 29/29/29 28/28/28
f 40/40/40 30/30/30 29/29/29
f 30/30/30 32/32/32 31/31/31
f 30/30/30 33/33/33 32/32/32
f 30/30/30 34/34/34 33/33/33
f 40/40/40 34/34/34 30/30/30
f 40/40/40 35/35/35 34/34/34
f 40/40/40 36/36/36 35/35/35
f 40/40/40 37/37/37 36/36/36
f 40/40/40 38/38/38 37/37/37
f 38/38/38 40/40/40 39/39/39
f 41/41/41 42/42/42 43/43/43
f 41/41/41 43/43/43 44/44/44
f 45/45/45 46/46/46 47/47/47
f 45/45/45 47/47/47 48/48/48
f 49/49/49 50/50/50 51/51/51
f 49/49/49 51/51/51 52/52/52
f 53/53/53 54/54/54 55/55/55
f 53/53/53 55/55/55 56/56/56
f 57/57/57 58/58/58 59/59/59
f 57/57/57 59/59/59 60/60/60
f 61/61/61 62/62/62 63/63/63
f 61/61/61 63/63/63 64/64/64
f 65/65/65 66/66/66 67/67/67
f 65/65/65 67/67/67 68/68/68
f 69/69/69 70/70/70 71/71/71
f 69/69/69 71/71/71 72/72/72
f 73/73/73 74/74/74 75/75/75
f 73/73/73 75/75/75 76/76/76
f 77/77/77 78/78/78 79/79/79
f 77/77/77 79/79/79 80/80/80
f 81/81/81 82/82/82 83/83/83
f 81/81/81 83/83/83 84/84/84
f 85/85/85 86/86/86 87/87/87
f 85/85/85 87/87/87 88/88/88
f 89/89/89 90/90/90 91/91/91
f 89/89/89 91/91/91 92/92/92
f 93/93/93 94/94/94 95/95/95
f 93/93/93 95/95/95 96/96/96
f 97/97/97 98/98/98 99/99/99
f 97/97/97 99/99/99 100/100/100
f 101/101/101 102/102/102 103/103/103
f 101/101/101 103/103/103 104/104/104
f 105/105/105 106/106/106 107/107/107
f 105/105/105 107/107/107 108/108/108
f 109/109/109 110/110/110 111/111/111
f 109/109/109 111/111/111 112/112/112
f 113/113/113 114/114/114 115/115/115
f 113/113/113 115/115/115 116/116/116
f 117/117/117 118/118/118 119/119/119
f 117/117/117 119/119/119 120/120/120
f 121/121/121 122/122/122 123/123/123
f 121/121/121 123/123/123 124/124/124
f 125/125/125 126/126/126 127/127/127
f 125/125/125 127/127/127 128/128/128
f 129/129/129 130/130/130 131/131/131
f 129/129/129 131/131/131 132/132/132
f 133/133/133 134/134/134 135/135/135
f 133/133/133 135/135/135 136/136/136
f 137/137/137 138/138/138 139/139/139
f 137/137/137 139/139/139 140/140/140
f 141/141/141 142/142/142 143/143/143
f 141/141/141 143/143/143 144/144/144
f 145/145/145 146/146/146 147/147/147
f 145/145/145 147/147/147 148/148/148
f 149/149/149 150/150/150 151/151/151
f 149/149/149 151/151/151 152/152/152
f 153/153/153 154/154/154 155/155/155
f 153/153/153 155/155/155 156/156/156
f 157/157/157 158/158/158 159/159/159
f 157/157/157 159/159/159 160/160/160
f 161/161/161 162/162/162 163/163/163
f 161/161/161 163/163/163 164/164/164
f 165/165/165 166/166/166 167/167/167
f 165/165/165 167/167/167 168/168/168
f 169/169/169 170/170/170 171/171/171
f 169/169/169 171/171/171 172/172/172
f 173/173/173 174/174/174 175/175/175
f 173/173/173 175/175/175 176/176/176
f 177/177/177 178/178/178 179/179/179
f 177/177/177 179/179/179 180/180/180
f 181/181/181 182/182/182 183/183/183
f 181/181/181 183/183/183 184/184/184
f 185/185/185 186/186/186 187/187/187
f 185/185/185 187/187/187 188/188/188
f 189/189/189 190/190/190 191/191/191
f 189/189/189 191/191/191 192/192/192
f 193/193/193 194/194/194 195/195/195
f 193/193/193 195/195/195 196/196/196
f 197/197/197 198/198/198 199/199/199
f 197/197/197 199/199/199 200/200/200
f 201/201/201 202/202/202 203/203/203
f 201/201/201 203/203/203 204/204/204
f 205/205/205 206/206/206 207/207/207
f 205/205/205 207/207/207 208/208/208
f 209/209/209 210/210/210 211/211/211
f 209/209/209 211/211/211 212/212/212
