# Gridcycles piece tile_g1_hard_left (tools/make_tiles.py)
v 0.26500 0.36000 0.08450
v 0.24069 0.36000 0.24679
v 0.16871 0.36000 0.48409
v 0.05181 0.36000 0.70280
v -0.10551 0.36000 0.89449
v -0.29720 0.36000 1.05181
v -0.51591 0.36000 1.16871
v -0.75321 0.36000 1.24069
v -0.98441 0.36000 1.26500
v -1.22291 0.36000 1.00000
v -0.98441 0.36000 0.73500
v -0.85661 0.36000 0.72088
v -0.71873 0.36000 0.67905
v -0.59166 0.36000 0.61113
v -0.48028 0.36000 0.51972
v -0.38887 0.36000 0.40834
v -0.32095 0.36000 0.28127
v -0.27912 0.36000 0.14339
v -0.26500 0.36000 0.08450
v -0.00000 0.36000 0.34950
v 0.30000 0.00000 0.00000
v 0.27502 0.00000 0.25362
v 0.20104 0.00000 0.49749
v 0.08091 0.00000 0.72224
v -0.08076 0.00000 0.91924
v -0.27776 0.00000 1.08091
v -0.50251 0.00000 1.20104
v -0.74638 0.00000 1.27502
v -1.00000 0.00000 1.30000
v -1.27000 0.00000 1.00000
v -1.00000 0.00000 0.70000
v -0.86344 0.00000 0.68655
v -0.73212 0.00000 0.64672
v -0.61110 0.00000 0.58203
v -0.50503 0.00000 0.49497
v -0.41797 0.00000 0.38890
v -0.35328 0.00000 0.26788
v -0.31345 0.00000 0.13656
v -0.30000 0.00000 0.00000
v -0.00000 0.00000 0.30000
v 0.30000 0.00000 0.00000
v 0.27502 0.00000 0.25362
v 0.27502 0.32500 0.25362
v 0.30000 0.32500 0.00000
v 0.30000 0.32500 0.00000
v 0.27502 0.32500 0.25362
v 0.24069 0.36000 0.24679
v 0.26500 0.36000 0.08450
v 0.27502 0.00000 0.25362
v 0.20104 0.00000 0.49749
v 0.20104 0.32500 0.49749
v 0.27502 0.32500 0.25362
v 0.27502 0.32500 0.25362
v 0.20104 0.32500 0.49749
v 0.16871 0.36000 0.48409
v 0.24069 0.36000 0.24679
v 0.20104 0.00000 0.49749
v 0.08091 0.00000 0.72224
v 0.08091 0.32500 0.72224
v 0.20104 0.32500 0.49749
v 0.20104 0.32500 0.49749
v 0.08091 0.32500 0.72224
v 0.05181 0.36000 0.70280
v 0.16871 0.36000 0.48409
v 0.08091 0.00000 0.72224
v -0.08076 0.00000 0.91924
v -0.08076 0.32500 0.91924
v 0.08091 0.32500 0.72224
v 0.08091 0.32500 0.72224
v -0.08076 0.32500 0.91924
v -0.10551 0.36000 0.89449
v 0.05181 0.36000 0.70280
v -0.08076 0.00000 0.91924
v -0.27776 0.00000 1.08091
v -0.27776 0.32500 1.08091
v -0.08076 0.32500 0.91924
v -0.08076 0.32500 0.91924
v -0.27776 0.32500 1.08091
v -0.29720 0.36000 1.05181
v -0.10551 0.36000 0.89449
v -0.27776 0.00000 1.08091
v -0.50251 0.00000 1.20104
v -0.50251 0.32500 1.20104
v -0.27776 0.32500 1.08091
v -0.27776 0.32500 1.08091
v -0.50251 0.32500 1.20104
v -0.51591 0.36000 1.16871
v -0.29720 0.36000 1.05181
v -0.50251 0.00000 1.20104
v -0.74638 0.00000 1.27502
v -0.74638 0.32500 1.27502
v -0.50251 0.32500 1.20104
v -0.50251 0.32500 1.20104
v -0.74638 0.32500 1.27502
v -0.75321 0.36000 1.24069
v -0.51591 0.36000 1.16871
v -0.74638 0.00000 1.27502
v -1.00000 0.00000 1.30000
v -1.00000 0.32500 1.30000
v -0.74638 0.32500 1.27502
v -0.74638 0.32500 1.27502
v -1.00000 0.32500 1.30000
v -0.98441 0.36000 1.26500
v -0.75321 0.36000 1.24069
v -1.00000 0.00000 1.30000
v -1.27000 0.00000 1.00000
v -1.27000 0.32500 1.00000
v -1.00000 0.32500 1.30000
v -1.00000 0.32500 1.30000
v -1.27000 0.32500 1.00000
v -1.22291 0.36000 1.00000
v -0.98441 0.36000 1.26500
v -1.27000 0.00000 1.00000
v -1.00000 0.00000 0.70000
v -1.00000 0.32500 0.70000
v -1.27000 0.32500 1.00000
v -1.27000 0.32500 1.00000
v -1.00000 0.32500 0.70000
v -0.98441 0.36000 0.73500
v -1.22291 0.36000 1.00000
v -1.00000 0.00000 0.70000
v -0.86344 0.00000 0.68655
v -0.86344 0.32500 0.68655
v -1.00000 0.32500 0.70000
v -1.00000 0.32500 0.70000
v -0.86344 0.32500 0.68655
v -0.85661 0.36000 0.72088
v -0.98441 0.36000 0.73500
v -0.86344 0.00000 0.68655
v -0.73212 0.00000 0.64672
v -0.73212 0.32500 0.64672
v -0.86344 0.32500 0.68655
v -0.86344 0.32500 0.68655
v -0.73212 0.32500 0.64672
v -0.71873 0.36000 0.67905
v -0.85661 0.36000 0.72088
v -0.73212 0.00000 0.64672
v -0.61110 0.00000 0.58203
v -0.61110 0.32500 0.58203
v -0.73212 0.32500 0.64672
v -0.73212 0.32500 0.64672
v -0.61110 0.32500 0.58203
v -0.59166 0.36000 0.61113
v -0.71873 0.36000 0.67905
v -0.61110 0.00000 0.58203
v -0.50503 0.00000 0.49497
v -0.50503 0.32500 0.49497
v -0.61110 0.32500 0.58203
v -0.61110 0.32500 0.58203
v -0.50503 0.32500 0.49497
v -0.48028 0.36000 0.51972
v -0.59166 0.36000 0.61113
v -0.50503 0.00000 0.49497
v -0.41797 0.00000 0.38890
v -0.41797 0.32500 0.38890
v -0.50503 0.32500 0.49497
v -0.50503 0.32500 0.49497
v -0.41797 0.32500 0.38890
v -0.38887 0.36000 0.40834
v -0.48028 0.36000 0.51972
v -0.41797 0.00000 0.38890
v -0.35328 0.00000 0.26788
v -0.35328 0.32500 0.26788
v -0.41797 0.32500 0.38890
v -0.41797 0.32500 0.38890
v -0.35328 0.32500 0.26788
v -0.32095 0.36000 0.28127
v -0.38887 0.36000 0.40834
v -0.35328 0.00000 0.26788
v -0.31345 0.00000 0.13656
v -0.31345 0.32500 0.13656
v -0.35328 0.32500 0.26788
v -0.35328 0.32500 0.26788
v -0.31345 0.32500 0.13656
v -0.27912 0.36000 0.14339
v -0.32095 0.36000 0.28127
v -0.31345 0.00000 0.13656
v -0.30000 0.00000 0.00000
v -0.30000 0.32500 0.00000
v -0.31345 0.32500 0.13656
v -0.31345 0.32500 0.13656
v -0.30000 0.32500 0.00000
v -0.26500 0.36000 0.08450
v -0.27912 0.36000 0.14339
v -0.30000 0.00000 0.00000
v -0.00000 0.00000 0.30000
v -0.00000 0.32500 0.30000
v -0.30000 0.32500 0.00000
v -0.30000 0.32500 0.00000
v -0.00000 0.32500 0.30000
v -0.00000 0.36000 0.34950
v -0.26500 0.36000 0.08450
v -0.00000 0.00000 0.30000
v 0.30000 0.00000 0.00000
v 0.30000 0.32500 0.00000
v -0.00000 0.32500 0.30000
v -0.00000 0.32500 0.30000
v 0.30000 0.32500 0.00000
v 0.26500 0.36000 0.08450
v -0.00000 0.36000 0.34950
v 0.14600 0.36400 0.29068
v 0.01588 0.36400 0.60480
v -0.29824 0.36400 0.47469
v -0.16812 0.36400 0.16057
v -0.83943 0.36400 0.83188
v -0.52531 0.36400 0.70176
v -0.39520 0.36400 1.01588
v -0.70932 0.36400 1.14600
v -0.10905 0.36400 0.70711
v -0.29289 0.36400 0.89095
v -0.47674 0.36400 0.70711
v -0.29289 0.36400 0.52326
vt 0.12500 0.87500
vt 0.12500 0.87500
vt 0.12500 0.87500
vt 0.12500 0.87500
vt 0.12500 0.87500
vt 0.12500 0.87500
vt 0.12500 0.87500
vt 0.12500 0.87500
vt 0.12500 0.87500
vt 0.12500 0.87500
vt 0.12500 0.87500
vt 0.12500 0.87500
vt 0.12500 0.87500
vt 0.12500 0.87500
vt 0.12500 0.87500
vt 0.12500 0.87500
vt 0.12500 0.87500
vt 0.12500 0.87500
vt 0.12500 0.87500
vt 0.12500 0.87500
vt 0.37500 0.87500
vt 0.37500 0.87500
vt 0.37500 0.87500
vt 0.37500 0.87500
vt 0.37500 0.87500
vt 0.37500 0.87500
vt 0.37500 0.87500
vt 0.37500 0.87500
vt 0.37500 0.87500
vt 0.37500 0.87500
vt 0.37500 0.87500
vt 0.37500 0.87500
vt 0.37500 0.87500
vt 0.37500 0.87500
vt 0.37500 0.87500
vt 0.37500 0.87500
vt 0.37500 0.87500
vt 0.37500 0.87500
vt 0.37500 0.87500
vt 0.37500 0.87500
vt 0.37500 0.87500
vt 0.37500 0.87500
vt 0.37500 0.87500
vt 0.37500 0.87500
vt 0.37500 0.37500
vt 0.37500 0.37500
vt 0.37500 0.37500
vt 0.37500 0.37500
vt 0.37500 0.87500
vt 0.37500 0.87500
vt 0.37500 0.87500
vt 0.37500 0.87500
vt 0.37500 0.37500
vt 0.37500 0.37500
vt 0.37500 0.37500
vt 0.37500 0.37500
vt 0.37500 0.87500
vt 0.37500 0.87500
vt 0.37500 0.87500
vt 0.37500 0.87500
vt 0.37500 0.37500
vt 0.37500 0.37500
vt 0.37500 0.37500
vt 0.37500 0.37500
vt 0.37500 0.87500
vt 0.37500 0.87500
vt 0.37500 0.87500
vt 0.37500 0.87500
vt 0.37500 0.37500
vt 0.37500 0.37500
vt 0.37500 0.37500
vt 0.37500 0.37500
vt 0.37500 0.87500
vt 0.37500 0.87500
vt 0.37500 0.87500
vt 0.37500 0.87500
vt 0.37500 0.37500
vt 0.37500 0.37500
vt 0.37500 0.37500
vt 0.37500 0.37500
vt 0.37500 0.87500
vt 0.37500 0.87500
vt 0.37500 0.87500
vt 0.37500 0.87500
vt 0.37500 0.37500
vt 0.37500 0.37500
vt 0.37500 0.37500
vt 0.37500 0.37500
vt 0.37500 0.87500
vt 0.37500 0.87500
vt 0.37500 0.87500
vt 0.37500 0.87500
vt 0.37500 0.37500
vt 0.37500 0.37500
vt 0.37500 0.37500
vt 0.37500 0.37500
vt 0.37500 0.87500
vt 0.37500 0.87500
vt 0.37500 0.87500
vt 0.37500 0.87500
vt 0.37500 0.37500
vt 0.37500 0.37500
vt 0.37500 0.37500
vt 0.37500 0.37500
vt 0.37500 0.87500
vt 0.37500 0.87500
vt 0.37500 0.87500
vt 0.37500 0.87500
vt 0.37500 0.37500
vt 0.37500 0.37500
vt 0.37500 0.37500
vt 0.37500 0.37500
vt 0.37500 0.87500
vt 0.37500 0.87500
vt 0.37500 0.87500
vt 0.37500 0.87500
vt 0.37500 0.37500
vt 0.37500 0.37500
vt 0.37500 0.37500
vt 0.37500 0.37500
vt 0.37500 0.87500
vt 0.37500 0.87500
vt 0.37500 0.87500
vt 0.37500 0.87500
vt 0.37500 0.37500
vt 0.37500 0.37500
vt 0.37500 0.37500
vt 0.37500 0.37500
vt 0.37500 0.87500
vt 0.37500 0.87500
vt 0.37500 0.87500
vt 0.37500 0.87500
vt 0.37500 0.37500
vt 0.37500 0.37500
vt 0.37500 0.37500
vt 0.37500 0.37500
vt 0.37500 0.87500
vt 0.37500 0.87500
vt 0.37500 0.87500
vt 0.37500 0.87500
vt 0.37500 0.37500
vt 0.37500 0.37500
vt 0.37500 0.37500
vt 0.37500 0.37500
vt 0.37500 0.87500
vt 0.37500 0.87500
vt 0.37500 0.87500
vt 0.37500 0.87500
vt 0.37500 0.37500
vt 0.37500 0.37500
vt 0.37500 0.37500
vt 0.37500 0.37500
vt 0.37500 0.87500
vt 0.37500 0.87500
vt 0.37500 0.87500
vt 0.37500 0.87500
vt 0.37500 0.37500
vt 0.37500 0.37500
vt 0.37500 0.37500
vt 0.37500 0.37500
vt 0.37500 0.87500
vt 0.37500 0.87500
vt 0.37500 0.87500
vt 0.37500 0.87500
vt 0.37500 0.37500
vt 0.37500 0.37500
vt 0.37500 0.37500
vt 0.37500 0.37500
vt 0.37500 0.87500
vt 0.37500 0.87500
vt 0.37500 0.87500
vt 0.37500 0.87500
vt 0.37500 0.37500
vt 0.37500 0.37500
vt 0.37500 0.37500
vt 0.37500 0.37500
vt 0.37500 0.87500
vt 0.37500 0.87500
vt 0.37500 0.87500
vt 0.37500 0.87500
vt 0.37500 0.37500
vt 0.37500 0.37500
vt 0.37500 0.37500
vt 0.37500 0.37500
vt 0.37500 0.87500
vt 0.37500 0.87500
vt 0.37500 0.87500
vt 0.37500 0.87500
vt 0.37500 0.37500
vt 0.37500 0.37500
vt 0.37500 0.37500
vt 0.37500 0.37500
vt 0.37500 0.87500
vt 0.37500 0.87500
vt 0.37500 0.87500
vt 0.37500 0.87500
vt 0.37500 0.37500
vt 0.37500 0.37500
vt 0.37500 0.37500
vt 0.37500 0.37500
vt 0.50000 0.75000
vt 0.75000 0.75000
vt 0.75000 1.00000
vt 0.50000 1.00000
vt 0.50000 0.75000
vt 0.75000 0.75000
vt 0.75000 1.00000
vt 0.50000 1.00000
vt 0.00000 0.25000
vt 0.25000 0.25000
vt 0.25000 0.50000
vt 0.00000 0.50000
vn 0.00000 1.00000 0.00000
vn 0.00000 1.00000 0.00000
vn 0.00000 1.00000 0.00000
vn 0.00000 1.00000 0.00000
vn 0.00000 1.00000 0.00000
vn 0.00000 1.00000 0.00000
vn 0.00000 1.00000 0.00000
vn 0.00000 1.00000 0.00000
vn 0.00000 1.00000 0.00000
vn 0.00000 1.00000 0.00000
vn 0.00000 1.00000 0.00000
vn 0.00000 1.00000 0.00000
vn 0.00000 1.00000 0.00000
vn 0.00000 1.00000 0.00000
vn 0.00000 1.00000 0.00000
vn 0.00000 1.00000 0.00000
vn 0.00000 1.00000 0.00000
vn 0.00000 1.00000 0.00000
vn 0.00000 1.00000 0.00000
vn 0.00000 1.00000 0.00000
vn 0.00000 -1.00000 0.00000
vn 0.00000 -1.00000 0.00000
vn 0.00000 -1.00000 0.00000
vn 0.00000 -1.00000 0.00000
vn 0.00000 -1.00000 0.00000
vn 0.00000 -1.00000 0.00000
vn 0.00000 -1.00000 0.00000
vn 0.00000 -1.00000 0.00000
vn 0.00000 -1.00000 0.00000
vn 0.00000 -1.00000 0.00000
vn 0.00000 -1.00000 0.00000
vn 0.00000 -1.00000 0.00000
vn 0.00000 -1.00000 0.00000
vn 0.00000 -1.00000 0.00000
vn 0.00000 -1.00000 0.00000
vn 0.00000 -1.00000 0.00000
vn 0.00000 -1.00000 0.00000
vn 0.00000 -1.00000 0.00000
vn 0.00000 -1.00000 0.00000
vn 0.00000 -1.00000 0.00000
vn 0.99518 0.00000 0.09802
vn 0.99518 0.00000 0.09802
vn 0.99518 0.00000 0.09802
vn 0.99518 0.00000 0.09802
vn 0.70370 0.70711 0.06931
vn 0.70370 0.70711 0.06931
vn 0.70370 0.70711 0.06931
vn 0.70370 0.70711 0.06931
vn 0.95694 0.00000 0.29028
vn 0.95694 0.00000 0.29028
vn 0.95694 0.00000 0.29028
vn 0.95694 0.00000 0.29028
vn 0.67666 0.70711 0.20526
vn 0.67666 0.70711 0.20526
vn 0.67666 0.70711 0.20526
vn 0.67666 0.70711 0.20526
vn 0.88192 0.00000 0.47140
vn 0.88192 0.00000 0.47140
vn 0.88192 0.00000 0.47140
vn 0.88192 0.00000 0.47140
vn 0.62361 0.70711 0.33333
vn 0.62361 0.70711 0.33333
vn 0.62361 0.70711 0.33333
vn 0.62361 0.70711 0.33333
vn 0.77301 0.00000 0.63439
vn 0.77301 0.00000 0.63439
vn 0.77301 0.00000 0.63439
vn 0.77301 0.00000 0.63439
vn 0.54660 0.70711 0.44858
vn 0.54660 0.70711 0.44858
vn 0.54660 0.70711 0.44858
vn 0.54660 0.70711 0.44858
vn 0.63439 0.00000 0.77301
vn 0.63439 0.00000 0.77301
vn 0.63439 0.00000 0.77301
vn 0.63439 0.00000 0.77301
vn 0.44858 0.70711 0.54660
vn 0.44858 0.70711 0.54660
vn 0.44858 0.70711 0.54660
vn 0.44858 0.70711 0.54660
vn 0.47140 0.00000 0.88192
vn 0.47140 0.00000 0.88192
vn 0.47140 0.00000 0.88192
vn 0.47140 0.00000 0.88192
vn 0.33333 0.70711 0.62361
vn 0.33333 0.70711 0.62361
vn 0.33333 0.70711 0.62361
vn 0.33333 0.70711 0.62361
vn 0.29028 0.00000 0.95694
vn 0.29028 0.00000 0.95694
vn 0.29028 0.00000 0.95694
vn 0.29028 0.00000 0.95694
vn 0.20526 0.70711 0.67666
vn 0.20526 0.70711 0.67666
vn 0.20526 0.70711 0.67666
vn 0.20526 0.70711 0.67666
vn 0.09802 0.00000 0.99518
vn 0.09802 0.00000 0.99518
vn 0.09802 0.00000 0.99518
vn 0.09802 0.00000 0.99518
vn 0.06931 0.70711 0.70370
vn 0.06931 0.70711 0.70370
vn 0.06931 0.70711 0.70370
vn 0.06931 0.70711 0.70370
vn -0.74329 0.00000 0.66896
vn -0.74329 0.00000 0.66896
vn -0.74329 0.00000 0.66896
vn -0.74329 0.00000 0.66896
vn -0.52559 0.70711 0.47303
vn -0.52559 0.70711 0.47303
vn -0.52559 0.70711 0.47303
vn -0.52559 0.70711 0.47303
vn -0.74329 0.00000 -0.66896
vn -0.74329 0.00000 -0.66896
vn -0.74329 0.00000 -0.66896
vn -0.74329 0.00000 -0.66896
vn -0.52559 0.70711 -0.47303
vn -0.52559 0.70711 -0.47303
vn -0.52559 0.70711 -0.47303
vn -0.52559 0.70711 -0.47303
vn -0.09802 0.00000 -0.99518
vn -0.09802 0.00000 -0.99518
vn -0.09802 0.00000 -0.99518
vn -0.09802 0.00000 -0.99518
vn -0.06931 0.70711 -0.70370
vn -0.06931 0.70711 -0.70370
vn -0.06931 0.70711 -0.70370
vn -0.06931 0.70711 -0.70370
vn -0.29028 0.00000 -0.95694
vn -0.29028 0.00000 -0.95694
vn -0.29028 0.00000 -0.95694
vn -0.29028 0.00000 -0.95694
vn -0.20526 0.70711 -0.67666
vn -0.20526 0.70711 -0.67666
vn -0.20526 0.70711 -0.67666
vn -0.20526 0.70711 -0.67666
vn -0.47140 0.00000 -0.88192
vn -0.47140 0.00000 -0.88192
vn -0.47140 0.00000 -0.88192
vn -0.47140 0.00000 -0.88192
vn -0.33333 0.70711 -0.62361
vn -0.33333 0.70711 -0.62361
vn -0.33333 0.70711 -0.62361
vn -0.33333 0.70711 -0.62361
vn -0.63439 0.00000 -0.77301
vn -0.63439 0.00000 -0.77301
vn -0.63439 0.00000 -0.77301
vn -0.63439 0.00000 -0.77301
vn -0.44858 0.70711 -0.54660
vn -0.44858 0.70711 -0.54660
vn -0.44858 0.70711 -0.54660
vn -0.44858 0.70711 -0.54660
vn -0.77301 0.00000 -0.63439
vn -0.77301 0.00000 -0.63439
vn -0.77301 0.00000 -0.63439
vn -0.77301 0.00000 -0.63439
vn -0.54660 0.70711 -0.44858
vn -0.54660 0.70711 -0.44858
vn -0.54660 0.70711 -0.44858
vn -0.54660 0.70711 -0.44858
vn -0.88192 0.00000 -0.47140
vn -0.88192 0.00000 -0.47140
vn -0.88192 0.00000 -0.47140
vn -0.88192 0.00000 -0.47140
vn -0.62361 0.70711 -0.33333
vn -0.62361 0.70711 -0.33333
vn -0.62361 0.70711 -0.33333
vn -0.62361 0.70711 -0.33333
vn -0.95694 0.00000 -0.29028
vn -0.95694 0.00000 -0.29028
vn -0.95694 0.00000 -0.29028
vn -0.95694 0.00000 -0.29028
vn -0.67666 0.70711 -0.20526
vn -0.67666 0.70711 -0.20526
vn -0.67666 0.70711 -0.20526
vn -0.67666 0.70711 -0.20526
vn -0.99518 0.00000 -0.09802
vn -0.99518 0.00000 -0.09802
vn -0.99518 0.00000 -0.09802
vn -0.99518 0.00000 -0.09802
vn -0.70370 0.70711 -0.06931
vn -0.70370 0.70711 -0.06931
vn -0.70370 0.70711 -0.06931
vn -0.70370 0.70711 -0.06931
vn 0.70711 0.00000 -0.70711
vn 0.70711 0.00000 -0.70711
vn 0.70711 0.00000 -0.70711
vn 0.70711 0.00000 -0.70711
vn 0.50000 0.70711 -0.50000
vn 0.50000 0.70711 -0.50000
vn 0.50000 0.70711 -0.50000
vn 0.50000 0.70711 -0.50000
vn -0.70711 0.00000 -0.70711
vn -0.70711 0.00000 -0.70711
vn -0.70711 0.00000 -0.70711
vn -0.70711 0.00000 -0.70711
vn -0.50000 0.70711 -0.50000
vn -0.50000 0.70711 -0.50000
vn -0.50000 0.70711 -0.50000
vn -0.50000 0.70711 -0.50000
vn 0.00000 1.00000 0.00000
vn 0.00000 1.00000 0.00000
vn 0.00000 1.00000 0.00000
vn 0.00000 1.00000 0.00000
vn 0.00000 1.00000 0.00000
vn 0.00000 1.00000 0.00000
vn 0.00000 1.00000 0.00000
vn 0.00000 1.00000 0.00000
vn 0.00000 1.00000 0.00000
vn 0.00000 1.00000 0.00000
vn 0.00000 1.00000 0.00000
vn 0.00000 1.00000 0.00000
f 20/20/20 2/2/2 1/1/1
f 20/20/20 3/3/3 2/2/2
f 20/20/20 4/4/4 3/3/3
f 20/20/20 5/5/5 4/4/4
f 20/20/20 6/6/6 5/5/5
f 20/20/20 7/7/7 6/6/6
f 20/20/20 8/8/8 7/7/7
f 20/20/20 9/9/9 8/8/8
f 20/20/20 10/10/10 9/9/9
f 10/10/10 12/12/12 11/11/11
f 10/10/10 13/13/13 12/12/12
f 20/20/20 13/13/13 10/10/10
f 20/20/20 14/14/14 13/13/13
f 20/20/20 15/15/15 14/14/14
f 20/20/20 16/16/16 15/15/15
f 20/20/20 17/17/17 16/16/16
f 20/20/20 18/18/18 17/17/17
f 18/18/18 20/20/20 19/19/19
f 40/40/40 21/21/21 22/22/22
f 40/40/40 22/22/22 23/23/23
f 40/40/40 23/23/23 24/24/24
f 40/40/40 24/24/24 25/25/25
f 40/40/40 25/25/25 26/26/26
f 40/40/40 26/26/26 27/27/27
f 40/40/40 27/27/27 28/28/28
f 40/40/40 28/28/28 29/29/29
f 40/40/40 29/29/29 30/30/30
f 30/30/30 31/31/31 32/32/32
f 30/30/30 32/32/32 33/33/33
f 40/40/40 30/30/30 33/33/33
f 40/40/40 33/33/33 34/34/34
f 40/40/40 34/34/34 35/35/35
f 40/40/40 35/35/35 36/36/36
f 40/40/40 36/36/36 37/37/37
f 40/40/40 37/37/37 38/38/38
f 38/38/38 39/39/39 40/40/40
f 41/41/41 43/43/43 42/42/42
f 41/41/41 44/44/44 43/43/43
f 45/45/45 47/47/47 46/46/46
f 45/45/45 48/48/48 47/47/47
f 49/49/49 51/51/51 50/50/50
f 49/49/49 52/52/52 51/51/51
f 53/53/53 55/55/55 54/54/54
f 53/53/53 56/56/56 55/55/55
f 57/57/57 59/59/59 58/58/58
f 57/57/57 60/60/60 59/59/59
f 61/61/61 63/63/63 62/62/62
f 61/61/61 64/64/64 63/63/63
f 65/65/65 67/67/67 66/66/66
f 65/65/65 68/68/68 67/67/67
f 69/69/69 71/71/71 70/70/70
f 69/69/69 72/72/72 71/71/71
f 73/73/73 75/75/75 74/74/74
f 73/73/73 76/76/76 75/75/75
f 77/77/77 79/79/79 78/78/78
f 77/77/77 80/80/80 79/79/79
f 81/81/81 83/83/83 82/82/82
f 81/81/81 84/84/84 83/83/83
f 85/85/85 87/87/87 86/86/86
f 85/85/85 88/88/88 87/87/87
f 89/89/89 91/91/91 90/90/90
f 89/89/89 92/92/92 91/91/91
f 93/93/93 95/95/95 94/94/94
f 93/93/93 96/96/96 95/95/95
f 97/97/97 99/99/99 98/98/98
f 97/97/97 100/100/100 99/99/99
f 101/101/101 103/103/103 102/102/102
f 101/101/101 104/104/104 103/103/103
f 105/105/105 107/107/107 106/106/106
f 105/105/105 108/108/108 107/107/107
f 109/109/109 111/111/111 110/110/110
f 109/109/109 112/112/112 111/111/111
f 113/113/113 115/115/115 114/114/114
f 113/113/113 116/116/116 115/115/115
f 117/117/117 119/119/119 118/118/118
f 117/117/117 120/120/120 119/119/119
f 121/121/121 123/123/123 122/122/122
f 121/121/121 124/124/124 123/123/123
f 125/125/125 127/127/127 126/126/126
f 125/125/125 128/128/128 127/127/127
f 129/129/129 131/131/131 130/130/130
f 129/129/129 132/132/132 131/131/131
f 133/133/133 135/135/135 134/134/134
f 133/133/133 136/136/136 135/135/135
f 137/137/137 139/139/139 138/138/138
f 137/137/137 140/140/140 139/139/139
f 141/141/141 143/143/143 142/142/142
f 141/141/141 144/144/144 143/143/143
f 145/145/145 147/147/147 146/146/146
f 145/145/145 148/148/148 147/147/147
f 149/149/149 151/151/151 150/150/150
f 149/149/149 152/152/152 151/151/151
f 153/153/153 155/155/155 154/154/154
f 153/153/153 156/156/156 155/155/155
f 157/157/157 159/159/159 158/158/158
f 157/157/157 160/160/160 159/159/159
f 161/161/161 163/163/163 162/162/162
f 161/161/161 164/164/164 163/163/163
f 165/165/165 167/167/167 166/166/166
f 165/165/165 168/168/168 167/167/167
f 169/169/169 171/171/171 170/170/170
f 169/169/169 172/172/172 171/171/171
f 173/173/173 175/175/175 174/174/174
f 173/173/173 176/176/176 175/175/175
f 177/177/177 179/179/179 178/178/178
f 177/177/177 180/180/180 179/179/179
f 181/181/181 183/183/183 182/182/182
f 181/181/181 184/184/184 183/183/183
f 185/185/185 187/187/187 186/186/186
f 185/185/185 188/188/188 187/187/187
f 189/189/189 191/191/191 190/190/190
f 189/189/189 192/192/192 191/191/191
f 193/193/193 195/195/195 194/194/194
f 193/193/193 196/196/196 195/195/195
f 197/197/197 199/199/199 198/198/198
f 197/197/197 200/200/200 199/199/199
f 201/201/201 203/203/203 202/202/202
f 201/201/201 204/204/204 203/203/203
f 205/205/205 207/207/207 206/206/206
f 205/205/205 208/208/208 207/207/207
f 209/209/209 211/211/211 210/210/210
f 209/209/209 212/212/212 211/211/211
