# Gridcycles piece tile_g2_hard_right (tools/make_tiles.py)
v -0.26500 0.36000 0.08450
v -0.28873 0.36000 0.24094
v -0.35901 0.36000 0.47261
v -0.47314 0.36000 0.68613
v -0.62672 0.36000 0.87328
v -0.81387 0.36000 1.02686
v -1.02739 0.36000 1.14099
v -1.25906 0.36000 1.21127
v -1.48441 0.36000 1.23500
v -1.72291 0.36000 1.50000
v -1.48441 0.36000 1.76500
v -1.15567 0.36000 1.73109
v -0.82456 0.36000 1.63065
v -0.51942 0.36000 1.46754
v -0.25196 0.36000 1.24804
v -0.03246 0.36000 0.98058
v 0.13065 0.36000 0.67544
v 0.23109 0.36000 0.34433
v 0.26500 0.36000 0.08450
v -0.00000 0.36000 0.34950
v -0.30000 0.00000 0.00000
v -0.32306 0.00000 0.23411
v -0.39134 0.00000 0.45922
v -0.50224 0.00000 0.66668
v -0.65147 0.00000 0.84853
v -0.83332 0.00000 0.99776
v -1.04078 0.00000 1.10866
v -1.26589 0.00000 1.17694
v -1.50000 0.00000 1.20000
v -1.77000 0.00000 1.50000
v -1.50000 0.00000 1.80000
v -1.14884 0.00000 1.76541
v -0.81117 0.00000 1.66298
v -0.49997 0.00000 1.49665
v -0.22721 0.00000 1.27279
v -0.00335 0.00000 1.00003
v 0.16298 0.00000 0.68883
v 0.26541 0.00000 0.35116
v 0.30000 0.00000 0.00000
v -0.00000 0.00000 0.30000
v -0.30000 0.00000 0.00000
v -0.32306 0.00000 0.23411
v -0.32306 0.32500 0.23411
v -0.30000 0.32500 0.00000
v -0.30000 0.32500 0.00000
v -0.32306 0.32500 0.23411
v -0.28873 0.36000 0.24094
v -0.26500 0.36000 0.08450
v -0.32306 0.00000 0.23411
v -0.39134 0.00000 0.45922
v -0.39134 0.32500 0.45922
v -0.32306 0.32500 0.23411
v -0.32306 0.32500 0.23411
v -0.39134 0.32500 0.45922
v -0.35901 0.36000 0.47261
v -0.28873 0.36000 0.24094
v -0.39134 0.00000 0.45922
v -0.50224 0.00000 0.66668
v -0.50224 0.32500 0.66668
v -0.39134 0.32500 0.45922
v -0.39134 0.32500 0.45922
v -0.50224 0.32500 0.66668
v -0.47314 0.36000 0.68613
v -0.35901 0.36000 0.47261
v -0.50224 0.00000 0.66668
v -0.65147 0.00000 0.84853
v -0.65147 0.32500 0.84853
v -0.50224 0.32500 0.66668
v -0.50224 0.32500 0.66668
v -0.65147 0.32500 0.84853
v -0.62672 0.36000 0.87328
v -0.47314 0.36000 0.68613
v -0.65147 0.00000 0.84853
v -0.83332 0.00000 0.99776
v -0.83332 0.32500 0.99776
v -0.65147 0.32500 0.84853
v -0.65147 0.32500 0.84853
v -0.83332 0.32500 0.99776
v -0.81387 0.36000 1.02686
v -0.62672 0.36000 0.87328
v -0.83332 0.00000 0.99776
v -1.04078 0.00000 1.10866
v -1.04078 0.32500 1.10866
v -0.83332 0.32500 0.99776
v -0.83332 0.32500 0.99776
v -1.04078 0.32500 1.10866
v -1.02739 0.36000 1.14099
v -0.81387 0.36000 1.02686
v -1.04078 0.00000 1.10866
v -1.26589 0.00000 1.17694
v -1.26589 0.32500 1.17694
v -1.04078 0.32500 1.10866
v -1.04078 0.32500 1.10866
v -1.26589 0.32500 1.17694
v -1.25906 0.36000 1.21127
v -1.02739 0.36000 1.14099
v -1.26589 0.00000 1.17694
v -1.50000 0.00000 1.20000
v -1.50000 0.32500 1.20000
v -1.26589 0.32500 1.17694
v -1.26589 0.32500 1.17694
v -1.50000 0.32500 1.20000
v -1.48441 0.36000 1.23500
v -1.25906 0.36000 1.21127
v -1.50000 0.00000 1.20000
v -1.77000 0.00000 1.50000
v -1.77000 0.32500 1.50000
v -1.50000 0.32500 1.20000
v -1.50000 0.32500 1.20000
v -1.77000 0.32500 1.50000
v -1.72291 0.36000 1.50000
v -1.48441 0.36000 1.23500
v -1.77000 0.00000 1.50000
v -1.50000 0.00000 1.80000
v -1.50000 0.32500 1.80000
v -1.77000 0.32500 1.50000
v -1.77000 0.32500 1.50000
v -1.50000 0.32500 1.80000
v -1.48441 0.36000 1.76500
v -1.72291 0.36000 1.50000
v -1.50000 0.00000 1.80000
v -1.14884 0.00000 1.76541
v -1.14884 0.32500 1.76541
v -1.50000 0.32500 1.80000
v -1.50000 0.32500 1.80000
v -1.14884 0.32500 1.76541
v -1.15567 0.36000 1.73109
v -1.48441 0.36000 1.76500
v -1.14884 0.00000 1.76541
v -0.81117 0.00000 1.66298
v -0.81117 0.32500 1.66298
v -1.14884 0.32500 1.76541
v -1.14884 0.32500 1.76541
v -0.81117 0.32500 1.66298
v -0.82456 0.36000 1.63065
v -1.15567 0.36000 1.73109
v -0.81117 0.00000 1.66298
v -0.49997 0.00000 1.49665
v -0.49997 0.32500 1.49665
v -0.81117 0.32500 1.66298
v -0.81117 0.32500 1.66298
v -0.49997 0.32500 1.49665
v -0.51942 0.36000 1.46754
v -0.82456 0.36000 1.63065
v -0.49997 0.00000 1.49665
v -0.22721 0.00000 1.27279
v -0.22721 0.32500 1.27279
v -0.49997 0.32500 1.49665
v -0.49997 0.32500 1.49665
v -0.22721 0.32500 1.27279
v -0.25196 0.36000 1.24804
v -0.51942 0.36000 1.46754
v -0.22721 0.00000 1.27279
v -0.00335 0.00000 1.00003
v -0.00335 0.32500 1.00003
v -0.22721 0.32500 1.27279
v -0.22721 0.32500 1.27279
v -0.00335 0.32500 1.00003
v -0.03246 0.36000 0.98058
v -0.25196 0.36000 1.24804
v -0.00335 0.00000 1.00003
v 0.16298 0.00000 0.68883
v 0.16298 0.32500 0.68883
v -0.00335 0.32500 1.00003
v -0.00335 0.32500 1.00003
v 0.16298 0.32500 0.68883
v 0.13065 0.36000 0.67544
v -0.03246 0.36000 0.98058
v 0.16298 0.00000 0.68883
v 0.26541 0.00000 0.35116
v 0.26541 0.32500 0.35116
v 0.16298 0.32500 0.68883
v 0.16298 0.32500 0.68883
v 0.26541 0.32500 0.35116
v 0.23109 0.36000 0.34433
v 0.13065 0.36000 0.67544
v 0.26541 0.00000 0.35116
v 0.30000 0.00000 0.00000
v 0.30000 0.32500 0.00000
v 0.26541 0.32500 0.35116
v 0.26541 0.32500 0.35116
v 0.30000 0.32500 0.00000
v 0.26500 0.36000 0.08450
v 0.23109 0.36000 0.34433
v 0.30000 0.00000 0.00000
v -0.00000 0.00000 0.30000
v -0.00000 0.32500 0.30000
v 0.30000 0.32500 0.00000
v 0.30000 0.32500 0.00000
v -0.00000 0.32500 0.30000
v -0.00000 0.36000 0.34950
v 0.26500 0.36000 0.08450
v -0.00000 0.00000 0.30000
v -0.30000 0.00000 0.00000
v -0.30000 0.32500 0.00000
v -0.00000 0.32500 0.30000
v -0.00000 0.32500 0.30000
v -0.30000 0.32500 0.00000
v -0.26500 0.36000 0.08450
v -0.00000 0.36000 0.34950
v -0.20618 0.36400 0.35191
v -0.33630 0.36400 0.66603
v -0.02218 0.36400 0.79614
v 0.10794 0.36400 0.48202
v -1.01798 0.36400 1.60794
v -0.70386 0.36400 1.47782
v -0.83397 0.36400 1.16370
v -1.14809 0.36400 1.29382
v -0.43934 0.36400 0.87681
v -0.62319 0.36400 1.06066
v -0.43934 0.36400 1.24451
v -0.25549 0.36400 1.06066
vt 0.12500 0.87500
vt 0.12500 0.87500
vt 0.12500 0.87500
vt 0.12500 0.87500
vt 0.12500 0.87500
vt 0.12500 0.87500
vt 0.12500 0.87500
vt 0.12500 0.87500
vt 0.12500 0.87500
vt 0.12500 0.87500
vt 0.12500 0.87500
vt 0.12500 0.87500
vt 0.12500 0.87500
vt 0.12500 0.87500
vt 0.12500 0.87500
vt 0.12500 0.87500
vt 0.12500 0.87500
vt 0.12500 0.87500
vt 0.12500 0.87500
vt 0.12500 0.87500
vt 0.37500 0.87500
vt 0.37500 0.87500
vt 0.37500 0.87500
vt 0.37500 0.87500
vt 0.37500 0.87500
vt 0.37500 0.87500
vt 0.37500 0.87500
vt 0.37500 0.87500
vt 0.37500 0.87500
vt 0.37500 0.87500
vt 0.37500 0.87500
vt 0.37500 0.87500
vt 0.37500 0.87500
vt 0.37500 0.87500
vt 0.37500 0.87500
vt 0.37500 0.87500
vt 0.37500 0.87500
vt 0.37500 0.87500
vt 0.37500 0.87500
vt 0.37500 0.87500
vt 0.37500 0.87500
vt 0.37500 0.87500
vt 0.37500 0.87500
vt 0.37500 0.87500
vt 0.37500 0.37500
vt 0.37500 0.37500
vt 0.37500 0.37500
vt 0.37500 0.37500
vt 0.37500 0.87500
vt 0.37500 0.87500
vt 0.37500 0.87500
vt 0.37500 0.87500
vt 0.37500 0.37500
vt 0.37500 0.37500
vt 0.37500 0.37500
vt 0.37500 0.37500
vt 0.37500 0.87500
vt 0.37500 0.87500
vt 0.37500 0.87500
vt 0.37500 0.87500
vt 0.37500 0.37500
vt 0.37500 0.37500
vt 0.37500 0.37500
vt 0.37500 0.37500
vt 0.37500 0.87500
vt 0.37500 0.87500
vt 0.37500 0.87500
vt 0.37500 0.87500
vt 0.37500 0.37500
vt 0.37500 0.37500
vt 0.37500 0.37500
vt 0.37500 0.37500
vt 0.37500 0.87500
vt 0.37500 0.87500
vt 0.37500 0.87500
vt 0.37500 0.87500
vt 0.37500 0.37500
vt 0.37500 0.37500
vt 0.37500 0.37500
vt 0.37500 0.37500
vt 0.37500 0.87500
vt 0.37500 0.87500
vt 0.37500 0.87500
vt 0.37500 0.87500
vt 0.37500 0.37500
vt 0.37500 0.37500
vt 0.37500 0.37500
vt 0.37500 0.37500
vt 0.37500 0.87500
vt 0.37500 0.87500
vt 0.37500 0.87500
vt 0.37500 0.87500
vt 0.37500 0.37500
vt 0.37500 0.37500
vt 0.37500 0.37500
vt 0.37500 0.37500
vt 0.37500 0.87500
vt 0.37500 0.87500
vt 0.37500 0.87500
vt 0.37500 0.87500
vt 0.37500 0.37500
vt 0.37500 0.37500
vt 0.37500 0.37500
vt 0.37500 0.37500
vt 0.37500 0.87500
vt 0.37500 0.87500
vt 0.37500 0.87500
vt 0.37500 0.87500
vt 0.37500 0.37500
vt 0.37500 0.37500
vt 0.37500 0.37500
vt 0.37500 0.37500
vt 0.37500 0.87500
vt 0.37500 0.87500
vt 0.37500 0.87500
vt 0.37500 0.87500
vt 0.37500 0.37500
vt 0.37500 0.37500
vt 0.37500 0.37500
vt 0.37500 0.37500
vt 0.37500 0.87500
vt 0.37500 0.87500
vt 0.37500 0.87500
vt 0.37500 0.87500
vt 0.37500 0.37500
vt 0.37500 0.37500
vt 0.37500 0.37500
vt 0.37500 0.37500
vt 0.37500 0.87500
vt 0.37500 0.87500
vt 0.37500 0.87500
vt 0.37500 0.87500
vt 0.37500 0.37500
vt 0.37500 0.37500
vt 0.37500 0.37500
vt 0.37500 0.37500
vt 0.37500 0.87500
vt 0.37500 0.87500
vt 0.37500 0.87500
vt 0.37500 0.87500
vt 0.37500 0.37500
vt 0.37500 0.37500
vt 0.37500 0.37500
vt 0.37500 0.37500
vt 0.37500 0.87500
vt 0.37500 0.87500
vt 0.37500 0.87500
vt 0.37500 0.87500
vt 0.37500 0.37500
vt 0.37500 0.37500
vt 0.37500 0.37500
vt 0.37500 0.37500
vt 0.37500 0.87500
vt 0.37500 0.87500
vt 0.37500 0.87500
vt 0.37500 0.87500
vt 0.37500 0.37500
vt 0.37500 0.37500
vt 0.37500 0.37500
vt 0.37500 0.37500
vt 0.37500 0.87500
vt 0.37500 0.87500
vt 0.37500 0.87500
vt 0.37500 0.87500
vt 0.37500 0.37500
vt 0.37500 0.37500
vt 0.37500 0.37500
vt 0.37500 0.37500
vt 0.37500 0.87500
vt 0.37500 0.87500
vt 0.37500 0.87500
vt 0.37500 0.87500
vt 0.37500 0.37500
vt 0.37500 0.37500
vt 0.37500 0.37500
vt 0.37500 0.37500
vt 0.37500 0.87500
vt 0.37500 0.87500
vt 0.37500 0.87500
vt 0.37500 0.87500
vt 0.37500 0.37500
vt 0.37500 0.37500
vt 0.37500 0.37500
vt 0.37500 0.37500
vt 0.37500 0.87500
vt 0.37500 0.87500
vt 0.37500 0.87500
vt 0.37500 0.87500
vt 0.37500 0.37500
vt 0.37500 0.37500
vt 0.37500 0.37500
vt 0.37500 0.37500
vt 0.37500 0.87500
vt 0.37500 0.87500
vt 0.37500 0.87500
vt 0.37500 0.87500
vt 0.37500 0.37500
vt 0.37500 0.37500
vt 0.37500 0.37500
vt 0.37500 0.37500
vt 0.75000 0.75000
vt 1.00000 0.75000
vt 1.00000 1.00000
vt 0.75000 1.00000
vt 0.75000 0.75000
vt 1.00000 0.75000
vt 1.00000 1.00000
vt 0.75000 1.00000
vt 0.00000 0.25000
vt 0.25000 0.25000
vt 0.25000 0.50000
vt 0.00000 0.50000
vn -0.00000 1.00000 0.00000
vn -0.00000 1.00000 0.00000
vn -0.00000 1.00000 0.00000
vn -0.00000 1.00000 0.00000
vn -0.00000 1.00000 0.00000
vn -0.00000 1.00000 0.00000
vn -0.00000 1.00000 0.00000
vn -0.00000 1.00000 0.00000
vn -0.00000 1.00000 0.00000
vn -0.00000 1.00000 0.00000
vn -0.00000 1.00000 0.00000
vn -0.00000 1.00000 0.00000
vn -0.00000 1.00000 0.00000
vn -0.00000 1.00000 0.00000
vn -0.00000 1.00000 0.00000
vn -0.00000 1.00000 0.00000
vn -0.00000 1.00000 0.00000
vn -0.00000 1.00000 0.00000
vn -0.00000 1.00000 0.00000
vn -0.00000 1.00000 0.00000
vn -0.00000 -1.00000 0.00000
vn -0.00000 -1.00000 0.00000
vn -0.00000 -1.00000 0.00000
vn -0.00000 -1.00000 0.00000
vn -0.00000 -1.00000 0.00000
vn -0.00000 -1.00000 0.00000
vn -0.00000 -1.00000 0.00000
vn -0.00000 -1.00000 0.00000
vn -0.00000 -1.00000 0.00000
vn -0.00000 -1.00000 0.00000
vn -0.00000 -1.00000 0.00000
vn -0.00000 -1.00000 0.00000
vn -0.00000 -1.00000 0.00000
vn -0.00000 -1.00000 0.00000
vn -0.00000 -1.00000 0.00000
vn -0.00000 -1.00000 0.00000
vn -0.00000 -1.00000 0.00000
vn -0.00000 -1.00000 0.00000
vn -0.00000 -1.00000 0.00000
vn -0.00000 -1.00000 0.00000
vn -0.99518 0.00000 -0.09802
vn -0.99518 0.00000 -0.09802
vn -0.99518 0.00000 -0.09802
vn -0.99518 0.00000 -0.09802
vn -0.70370 0.70711 -0.06931
vn -0.70370 0.70711 -0.06931
vn -0.70370 0.70711 -0.06931
vn -0.70370 0.70711 -0.06931
vn -0.95694 0.00000 -0.29028
vn -0.95694 0.00000 -0.29028
vn -0.95694 0.00000 -0.29028
vn -0.95694 0.00000 -0.29028
vn -0.67666 0.70711 -0.20526
vn -0.67666 0.70711 -0.20526
vn -0.67666 0.70711 -0.20526
vn -0.67666 0.70711 -0.20526
vn -0.88192 0.00000 -0.47140
vn -0.88192 0.00000 -0.47140
vn -0.88192 0.00000 -0.47140
vn -0.88192 0.00000 -0.47140
vn -0.62361 0.70711 -0.33333
vn -0.62361 0.70711 -0.33333
vn -0.62361 0.70711 -0.33333
vn -0.62361 0.70711 -0.33333
vn -0.77301 0.00000 -0.63439
vn -0.77301 0.00000 -0.63439
vn -0.77301 0.00000 -0.63439
vn -0.77301 0.00000 -0.63439
vn -0.54660 0.70711 -0.44858
vn -0.54660 0.70711 -0.44858
vn -0.54660 0.70711 -0.44858
vn -0.54660 0.70711 -0.44858
vn -0.63439 0.00000 -0.77301
vn -0.63439 0.00000 -0.77301
vn -0.63439 0.00000 -0.77301
vn -0.63439 0.00000 -0.77301
vn -0.44858 0.70711 -0.54660
vn -0.44858 0.70711 -0.54660
vn -0.44858 0.70711 -0.54660
vn -0.44858 0.70711 -0.54660
vn -0.47140 0.00000 -0.88192
vn -0.47140 0.00000 -0.88192
vn -0.47140 0.00000 -0.88192
vn -0.47140 0.00000 -0.88192
vn -0.33333 0.70711 -0.62361
vn -0.33333 0.70711 -0.62361
vn -0.33333 0.70711 -0.62361
vn -0.33333 0.70711 -0.62361
vn -0.29028 0.00000 -0.95694
vn -0.29028 0.00000 -0.95694
vn -0.29028 0.00000 -0.95694
vn -0.29028 0.00000 -0.95694
vn -0.20526 0.70711 -0.67666
vn -0.20526 0.70711 -0.67666
vn -0.20526 0.70711 -0.67666
vn -0.20526 0.70711 -0.67666
vn -0.09802 0.00000 -0.99518
vn -0.09802 0.00000 -0.99518
vn -0.09802 0.00000 -0.99518
vn -0.09802 0.00000 -0.99518
vn -0.06931 0.70711 -0.70370
vn -0.06931 0.70711 -0.70370
vn -0.06931 0.70711 -0.70370
vn -0.06931 0.70711 -0.70370
vn -0.74329 0.00000 -0.66896
vn -0.74329 0.00000 -0.66896
vn -0.74329 0.00000 -0.66896
vn -0.74329 0.00000 -0.66896
vn -0.52559 0.70711 -0.47303
vn -0.52559 0.70711 -0.47303
vn -0.52559 0.70711 -0.47303
vn -0.52559 0.70711 -0.47303
vn -0.74329 0.00000 0.66896
vn -0.74329 0.00000 0.66896
vn -0.74329 0.00000 0.66896
vn -0.74329 0.00000 0.66896
vn -0.52559 0.70711 0.47303
vn -0.52559 0.70711 0.47303
vn -0.52559 0.70711 0.47303
vn -0.52559 0.70711 0.47303
vn 0.09802 0.00000 0.99518
vn 0.09802 0.00000 0.99518
vn 0.09802 0.00000 0.99518
vn 0.09802 0.00000 0.99518
vn 0.06931 0.70711 0.70370
vn 0.06931 0.70711 0.70370
vn 0.06931 0.70711 0.70370
vn 0.06931 0.70711 0.70370
vn 0.29028 0.00000 0.95694
vn 0.29028 0.00000 0.95694
vn 0.29028 0.00000 0.95694
vn 0.29028 0.00000 0.95694
vn 0.20526 0.70711 0.67666
vn 0.20526 0.70711 0.67666
vn 0.20526 0.70711 0.67666
vn 0.20526 0.70711 0.67666
vn 0.47140 0.00000 0.88192
vn 0.47140 0.00000 0.88192
vn 0.47140 0.00000 0.88192
vn 0.47140 0.00000 0.88192
vn 0.33333 0.70711 0.62361
vn 0.33333 0.70711 0.62361
vn 0.33333 0.70711 0.62361
vn 0.33333 0.70711 0.62361
vn 0.63439 0.00000 0.77301
vn 0.63439 0.00000 0.77301
vn 0.63439 0.00000 0.77301
vn 0.63439 0.00000 0.77301
vn 0.44858 0.70711 0.54660
vn 0.44858 0.70711 0.54660
vn 0.44858 0.70711 0.54660
vn 0.44858 0.70711 0.54660
vn 0.77301 0.00000 0.63439
vn 0.77301 0.00000 0.63439
vn 0.77301 0.00000 0.63439
vn 0.77301 0.00000 0.63439
vn 0.54660 0.70711 0.44858
vn 0.54660 0.70711 0.44858
vn 0.54660 0.70711 0.44858
vn 0.54660 0.70711 0.44858
vn 0.88192 0.00000 0.47140
vn 0.88192 0.00000 0.47140
vn 0.88192 0.00000 0.47140
vn 0.88192 0.00000 0.47140
vn 0.62361 0.70711 0.33333
vn 0.62361 0.70711 0.33333
vn 0.62361 0.70711 0.33333
vn 0.62361 0.70711 0.33333
vn 0.95694 0.00000 0.29028
vn 0.95694 0.00000 0.29028
vn 0.95694 0.00000 0.29028
vn 0.95694 0.00000 0.29028
vn 0.67666 0.70711 0.20526
vn 0.67666 0.70711 0.20526
vn 0.67666 0.70711 0.20526
vn 0.67666 0.70711 0.20526
vn 0.99518 0.00000 0.09802
vn 0.99518 0.00000 0.09802
vn 0.99518 0.00000 0.09802
vn 0.99518 0.00000 0.09802
vn 0.70370 0.70711 0.06931
vn 0.70370 0.70711 0.06931
vn 0.70370 0.70711 0.06931
vn 0.70370 0.70711 0.06931
vn -0.70711 0.00000 -0.70711
vn -0.70711 0.00000 -0.70711
vn -0.70711 0.00000 -0.70711
vn -0.70711 0.00000 -0.70711
vn -0.50000 0.70711 -0.50000
vn -0.50000 0.70711 -0.50000
vn -0.50000 0.70711 -0.50000
vn -0.50000 0.70711 -0.50000
vn 0.70711 0.00000 -0.70711
vn 0.70711 0.00000 -0.70711
vn 0.70711 0.00000 -0.70711
vn 0.70711 0.00000 -0.70711
vn 0.50000 0.70711 -0.50000
vn 0.50000 0.70711 -0.50000
vn 0.50000 0.70711 -0.50000
vn 0.50000 0.70711 -0.50000
vn -0.00000 1.00000 0.00000
vn -0.00000 1.00000 0.00000
vn -0.00000 1.00000 0.00000
vn -0.00000 1.00000 0.00000
vn -0.00000 1.00000 0.00000
vn -0.00000 1.00000 0.00000
vn -0.00000 1.00000 0.00000
vn -0.00000 1.00000 0.00000
vn -0.00000 1.00000 0.00000
vn -0.00000 1.00000 0.00000
vn -0.00000 1.00000 0.00000
vn -0.00000 1.00000 0.00000
f 20/20/20 1/1/1 2/2/2
f 20/20/20 2/2/2 3/3/3
f 20/20/20 3/3/3 4/4/4
f 20/20/20 4/4/4 5/5/5
f 8/8/8 9/9/9 10/10/10
f 7/7/7 8/8/8 10/10/10
f 7/7/7 10/10/10 11/11/11
f 6/6/6 7/7/7 11/11/11
f 5/5/5 6/6/6 11/11/11
f 20/20/20 5/5/5 11/11/11
f 20/20/20 11/11/11 12/12/12
f 20/20/20 12/12/12 13/13/13
f 20/20/20 13/13/13 14/14/14
f 20/20/20 14/14/14 15/15/15
f 20/20/20 15/15/15 16/16/16
f 20/20/20 16/16/16 17/17/17
f 20/20/20 17/17/17 18/18/18
f 18/18/18 19/19/19 20/20/20
f 40/40/40 22/22/22 21/21/21
f 40/40/40 23/23/23 22/22/22
f 40/40/40 24/24/24 23/23/23
f 40/40/40 25/25/25 24/24/24
f 28/28/28 30/30/30 29/29/29
f 27/27/27 30/30/30 28/28/28
f 26/26/26 30/30/30 27/27/27
f 26/26/26 31/31/31 30/30/30
f 25/25/25 31/31/31 26/26/26
f 40/40/40 31/31/31 25/25/25
f 40/40/40 32/32/32 31/31/31
f 40/40/40 33/33/33 32/32/32
f 40/40/40 34/34/34 33/33/33
f 40/40/40 35/35/35 34/34/34
f 40/40/40 36/36/36 35/35/35
f 40/40/40 37/37/37 36/36/36
f 40/40/40 38/38/38 37/37/37
f 38/38/38 40/40/40 39/39/39
f 41/41/41 42/42/42 43/43/43
f 41/41/41 43/43/43 44/44/44
f 45/45/45 46/46/46 47/47/47
f 45/45/45 47/47/47 48/48/48
f 49/49/49 50/50/50 51/51/51
f 49/49/49 51/51/51 52/52/52
f 53/53/53 54/54/54 55/55/55
f 53/53/53 55/55/55 56/56/56
f 57/57/57 58/58/58 59/59/59
f 57/57/57 59/59/59 60/60/60
f 61/61/61 62/62/62 63/63/63
f 61/61/61 63/63/63 64/64/64
f 65/65/65 66/66/66 67/67/67
f 65/65/65 67/67/67 68/68/68
f 69/69/69 70/70/70 71/71/71
f 69/69/69 71/71/71 72/72/72
f 73/73/73 74/74/74 75/75/75
f 73/73/73 75/75/75 76/76/76
f 77/77/77 78/78/78 79/79/79
f 77/77/77 79/79/79 80/80/80
f 81/81/81 82/82/82 83/83/83
f 81/81/81 83/83/83 84/84/84
f 85/85/85 86/86/86 87/87/87
f 85/85/85 87/87/87 88/88/88
f 89/89/89 90/90/90 91/91/91
f 89/89/89 91/91/91 92/92/92
f 93/93/93 94/94/94 95/95/95
f 93/93/93 95/95/95 96/96/96
f 97/97/97 98/98/98 99/99/99
f 97/97/97 99/99/99 100/100/100
f 101/101/101 102/102/102 103/103/103
f 101/101/101 103/103/103 104/104/104
f 105/105/105 106/106/106 107/107/107
f 105/105/105 107/107/107 108/108/108
f 109/109/109 110/110/110 111/111/111
f 109/109/109 111/111/111 112/112/112
f 113/113/113 114/114/114 115/115/115
f 113/113/113 115/115/115 116/116/116
f 117/117/117 118/118/118 119/119/119
f 117/117/117 119/119/119 120/120/120
f 121/121/121 122/122/122 123/123/123
f 121/121/121 123/123/123 124/124/124
f 125/125/125 126/126/126 127/127/127
f 125/125/125 127/127/127 128/128/128
f 129/129/129 130/130/130 131/131/131
f 129/129/129 131/131/131 132/132/132
f 133/133/133 134/134/134 135/135/135
f 133/133/133 135/135/135 136/136/136
f 137/137/137 138/138/138 139/139/139
f 137/137/137 139/139/139 140/140/140
f 141/141/141 142/142/142 143/143/143
f 141/141/141 143/143/143 144/144/144
f 145/145/145 146/146/146 147/147/147
f 145/145/145 147/147/147 148/148/148
f 149/149/149 150/150/150 151/151/151
f 149/149/149 151/151/151 152/152/152
f 153/153/153 154/154/154 155/155/155
f 153/153/153 155/155/155 156/156/156
f 157/157/157 158/158/158 159/159/159
f 157/157/157 159/159/159 160/160/160
f 161/161/161 162/162/162 163/163/163
f 161/161/161 163/163/163 164/164/164
f 165/165/165 166/166/166 167/167/167
f 165/165/165 167/167/167 168/168/168
f 169/169/169 170/170/170 171/171/171
f 169/169/169 171/171/171 172/172/172
f 173/173/173 174/174/174 175/175/175
f 173/173/173 175/175/175 176/176/176
f 177/177/177 178/178/178 179/179/179
f 177/177/177 179/179/179 180/180/180
f 181/181/181 182/182/182 183/183/183
f 181/181/181 183/183/183 184/184/184
f 185/185/185 186/186/186 187/187/187
f 185/185/185 187/187/187 188/188/188
f 189/189/189 190/190/190 191/191/191
f 189/189/189 191/191/191 192/192/192
f 193/193/193 194/194/194 195/195/195
f 193/193/193 195/195/195 196/196/196
f 197/197/197 198/198/198 199/199/199
f 197/197/197 199/199/199 200/200/200
f 201/201/201 202/202/202 203/203/203
f 201/201/201 203/203/203 204/204/204
f 205/205/205 206/206/206 207/207/207
f 205/205/205 207/207/207 208/208/208
f 209/209/209 210/210/210 211/211/211
f 209/209/209 211/211/211 212/212/212
