# Gridcycles piece tile_g3_straight (tools/make_tiles.py)
v 0.26500 0.36000 0.08450
v 0.26500 0.36000 3.98441
v 0.00000 0.36000 4.22291
v -0.26500 0.36000 3.98441
v -0.26500 0.36000 0.08450
v 0.00000 0.36000 0.34950
v 0.30000 0.00000 0.00000
v 0.30000 0.00000 4.00000
v 0.00000 0.00000 4.27000
v -0.30000 0.00000 4.00000
v -0.30000 0.00000 0.00000
v 0.00000 0.00000 0.30000
v 0.30000 0.00000 0.00000
v 0.30000 0.00000 4.00000
v 0.30000 0.32500 4.00000
v 0.30000 0.32500 0.00000
v 0.30000 0.32500 0.00000
v 0.30000 0.32500 4.00000
v 0.26500 0.36000 3.98441
v 0.26500 0.36000 0.08450
v 0.30000 0.00000 4.00000
v 0.00000 0.00000 4.27000
v 0.00000 0.32500 4.27000
v 0.30000 0.32500 4.00000
v 0.30000 0.32500 4.00000
v 0.00000 0.32500 4.27000
v 0.00000 0.36000 4.22291
v 0.26500 0.36000 3.98441
v 0.00000 0.00000 4.27000
v -0.30000 0.00000 4.00000
v -0.30000 0.32500 4.00000
v 0.00000 0.32500 4.27000
v 0.00000 0.32500 4.27000
v -0.30000 0.32500 4.00000
v -0.26500 0.36000 3.98441
v 0.00000 0.36000 4.22291
v -0.30000 0.00000 4.00000
v -0.30000 0.00000 0.00000
v -0.30000 0.32500 0.00000
v -0.30000 0.32500 4.00000
v -0.30000 0.32500 4.00000
v -0.30000 0.32500 0.00000
v -0.26500 0.36000 0.08450
v -0.26500 0.36000 3.98441
v -0.30000 0.00000 0.00000
v 0.00000 0.00000 0.30000
v 0.00000 0.32500 0.30000
v -0.30000 0.32500 0.00000
v -0.30000 0.32500 0.00000
v 0.00000 0.32500 0.30000
v 0.00000 0.36000 0.34950
v -0.26500 0.36000 0.08450
v 0.00000 0.00000 0.30000
v 0.30000 0.00000 0.00000
v 0.30000 0.32500 0.00000
v 0.00000 0.32500 0.30000
v 0.00000 0.32500 0.30000
v 0.30000 0.32500 0.00000
v 0.26500 0.36000 0.08450
v 0.00000 0.36000 0.34950
v 0.20000 0.36400 1.12000
v 0.20000 0.36400 1.52000
v -0.20000 0.36400 1.52000
v -0.20000 0.36400 1.12000
v -0.20000 0.36400 2.88000
v -0.20000 0.36400 2.48000
v 0.20000 0.36400 2.48000
v 0.20000 0.36400 2.88000
vt 0.12500 0.87500
vt 0.12500 0.87500
vt 0.12500 0.87500
vt 0.12500 0.87500
vt 0.12500 0.87500
vt 0.12500 0.87500
vt 0.37500 0.87500
vt 0.37500 0.87500
vt 0.37500 0.87500
vt 0.37500 0.87500
vt 0.37500 0.87500
vt 0.37500 0.87500
vt 0.37500 0.87500
vt 0.37500 0.87500
vt 0.37500 0.87500
vt 0.37500 0.87500
vt 0.37500 0.37500
vt 0.37500 0.37500
vt 0.37500 0.37500
vt 0.37500 0.37500
vt 0.37500 0.87500
vt 0.37500 0.87500
vt 0.37500 0.87500
vt 0.37500 0.87500
vt 0.37500 0.37500
vt 0.37500 0.37500
vt 0.37500 0.37500
vt 0.37500 0.37500
vt 0.37500 0.87500
vt 0.37500 0.87500
vt 0.37500 0.87500
vt 0.37500 0.87500
vt 0.37500 0.37500
vt 0.37500 0.37500
vt 0.37500 0.37500
vt 0.37500 0.37500
vt 0.37500 0.87500
vt 0.37500 0.87500
vt 0.37500 0.87500
vt 0.37500 0.87500
vt 0.37500 0.37500
vt 0.37500 0.37500
vt 0.37500 0.37500
vt 0.37500 0.37500
vt 0.37500 0.87500
vt 0.37500 0.87500
vt 0.37500 0.87500
vt 0.37500 0.87500
vt 0.37500 0.37500
vt 0.37500 0.37500
vt 0.37500 0.37500
vt 0.37500 0.37500
vt 0.37500 0.87500
vt 0.37500 0.87500
vt 0.37500 0.87500
vt 0.37500 0.87500
vt 0.37500 0.37500
vt 0.37500 0.37500
vt 0.37500 0.37500
vt 0.37500 0.37500
vt 0.00000 0.50000
vt 0.25000 0.50000
vt 0.25000 0.75000
vt 0.00000 0.75000
vt 0.00000 0.50000
vt 0.25000 0.50000
vt 0.25000 0.75000
vt 0.00000 0.75000
vn 0.00000 1.00000 0.00000
vn 0.00000 1.00000 0.00000
vn 0.00000 1.00000 0.00000
vn 0.00000 1.00000 0.00000
vn 0.00000 1.00000 0.00000
vn 0.00000 1.00000 0.00000
vn 0.00000 -1.00000 0.00000
vn 0.00000 -1.00000 0.00000
vn 0.00000 -1.00000 0.00000
vn 0.00000 -1.00000 0.00000
vn 0.00000 -1.00000 0.00000
vn 0.00000 -1.00000 0.00000
vn 1.00000 0.00000 -0.00000
vn 1.00000 0.00000 -0.00000
vn 1.00000 0.00000 -0.00000
vn 1.00000 0.00000 -0.00000
vn 0.70711 0.70711 -0.00000
vn 0.70711 0.70711 -0.00000
vn 0.70711 0.70711 -0.00000
vn 0.70711 0.70711 -0.00000
vn 0.66896 0.00000 0.74329
vn 0.66896 0.00000 0.74329
vn 0.66896 0.00000 0.74329
vn 0.66896 0.00000 0.74329
vn 0.47303 0.70711 0.52559
vn 0.47303 0.70711 0.52559
vn 0.47303 0.70711 0.52559
vn 0.47303 0.70711 0.52559
vn -0.66896 0.00000 0.74329
vn -0.66896 0.00000 0.74329
vn -0.66896 0.00000 0.74329
vn -0.66896 0.00000 0.74329
vn -0.47303 0.70711 0.52559
vn -0.47303 0.70711 0.52559
vn -0.47303 0.70711 0.52559
vn -0.47303 0.70711 0.52559
vn -1.00000 0.00000 -0.00000
vn -1.00000 0.00000 -0.00000
vn -1.00000 0.00000 -0.00000
vn -1.00000 0.00000 -0.00000
vn -0.70711 0.70711 -0.00000
vn -0.70711 0.70711 -0.00000
vn -0.70711 0.70711 -0.00000
vn -0.70711 0.70711 -0.00000
vn 0.70711 0.00000 -0.70711
vn 0.70711 0.00000 -0.70711
vn 0.70711 0.00000 -0.70711
vn 0.70711 0.00000 -0.70711
vn 0.50000 0.70711 -0.50000
vn 0.50000 0.70711 -0.50000
vn 0.50000 0.70711 -0.50000
vn 0.50000 0.70711 -0.50000
vn -0.70711 0.00000 -0.70711
vn -0.70711 0.00000 -0.70711
vn -0.70711 0.00000 -0.70711
vn -0.70711 0.00000 -0.70711
vn -0.50000 0.70711 -0.50000
vn -0.50000 0.70711 -0.50000
vn -0.50000 0.70711 -0.50000
vn -0.50000 0.70711 -0.50000
vn 0.00000 1.00000 0.00000
vn 0.00000 1.00000 0.00000
vn 0.00000 1.00000 0.00000
vn 0.00000 1.00000 0.00000
vn 0.00000 1.00000 0.00000
vn 0.00000 1.00000 0.00000
vn 0.00000 1.00000 0.00000
vn 0.00000 1.00000 0.00000
f 6/6/6 2/2/2 1/1/1
f 6/6/6 3/3/3 2/2/2
f 6/6/6 4/4/4 3/3/3
f 4/4/4 6/6/6 5/5/5
f 12/12/12 7/7/7 8/8/8
f 12/12/12 8/8/8 9/9/9
f 12/12/12 9/9/9 10/10/10
f 10/10/10 11/11/11 12/12/12
f 13/13/13 15/15/15 14/14/14
f 13/13/13 16/16/16 15/15/15
f 17/17/17 19/19/19 18/18/18
f 17/17/17 20/20/20 19/19/19
f 21/21/21 23/23/23 22/22/22
f 21/21/21 24/24/24 23/23/23
f 25/25/25 27/27/27 26/26/26
f 25/25/25 28/28/28 27/27/27
f 29/29/29 31/31/31 30/30/30
f 29/29/29 32/32/32 31/31/31
f 33/33/33 35/35/35 34/34/34
f 33/33/33 36/36/36 35/35/35
f 37/37/37 39/39/39 38/38/38
f 37/37/37 40/40/40 39/39/39
f 41/41/41 43/43/43 42/42/42
f 41/41/41 44/44/44 43/43/43
f 45/45/45 47/47/47 46/46/46
f 45/45/45 48/48/48 47/47/47
f 49/49/49 51/51/51 50/50/50
f 49/49/49 52/52/52 51/51/51
f 53/53/53 55/55/55 54/54/54
f 53/53/53 56/56/56 55/55/55
f 57/57/57 59/59/59 58/58/58
f 57/57/57 60/60/60 59/59/59
f 61/61/61 63/63/63 62/62/62
f 61/61/61 64/64/64 63/63/63
f 65/65/65 67/67/67 66/66/66
f 65/65/65 68/68/68 67/67/67
